<svg xmlns="http://www.w3.org/2000/svg" width="336.9" height="388.9" viewBox="0 0 336.9 388.9">
  <g id="Gruppe_1" data-name="Gruppe 1" transform="translate(-564 -470)">
    <path id="Pfad_267" data-name="Pfad 267" d="M170.1,2,1.7,99.2V293.7l168.4,97.2,168.5-97.2V99.2Z" transform="translate(562.3 468)" fill="#f2f2f2"/>
    <rect id="Rechteck_340" data-name="Rechteck 340" width="192.1" height="35.6" transform="translate(637 697.7)" fill="#cc0f12"/>
    <path id="Pfad_304" data-name="Pfad 304" d="M112.3,253.2l-3.7-9.6h-.1a22.624,22.624,0,0,1,.1,2.7v6.9h-1.2V242.4h1.9l3.4,8.9h.1l3.5-8.9h1.9v10.8H117v-7a23.484,23.484,0,0,1,.1-2.6H117l-3.7,9.6h-1Z" transform="translate(562.3 468)" fill="#fff"/>
    <path id="Pfad_305" data-name="Pfad 305" d="M127.8,253.2h-6V242.4h6v1.1H123V247h4.5v1.1H123v4h4.8Z" transform="translate(562.3 468)" fill="#fff"/>
    <path id="Pfad_306" data-name="Pfad 306" d="M139,253.2h-1.3v-5.1H132v5.1h-1.3V242.4H132V247h5.7v-4.6H139Z" transform="translate(562.3 468)" fill="#fff"/>
    <path id="Pfad_307" data-name="Pfad 307" d="M143.9,248.7v4.5h-1.3V242.4h3a4.562,4.562,0,0,1,2.9.8,2.927,2.927,0,0,1,1,2.3,2.863,2.863,0,0,1-2.2,2.9l2.9,4.9h-1.5l-2.6-4.5h-2.2Zm0-1.1h1.7a3.677,3.677,0,0,0,2-.5,2.111,2.111,0,0,0,.6-1.6,1.755,1.755,0,0,0-.6-1.5,3.439,3.439,0,0,0-2-.5H144v4.1Z" transform="translate(562.3 468)" fill="#fff"/>
    <path id="Pfad_308" data-name="Pfad 308" d="M163.2,253.2h-6V242.4h6v1.1h-4.8V247h4.5v1.1h-4.5v4h4.8Z" transform="translate(562.3 468)" fill="#fff"/>
    <path id="Pfad_309" data-name="Pfad 309" d="M167.4,248.7v4.5h-1.3V242.4h3a4.562,4.562,0,0,1,2.9.8,2.927,2.927,0,0,1,1,2.3,2.863,2.863,0,0,1-2.2,2.9l2.9,4.9h-1.5l-2.6-4.5h-2.2Zm0-1.1h1.7a3.677,3.677,0,0,0,2-.5c.5-.3.6-.9.6-1.6a1.755,1.755,0,0,0-.6-1.5,3.439,3.439,0,0,0-2-.5h-1.6v4.1Z" transform="translate(562.3 468)" fill="#fff"/>
    <path id="Pfad_310" data-name="Pfad 310" d="M177.4,253.2h-1.3V242.4h6v1.1h-4.8v4h4.5v1.1h-4.5v4.6Z" transform="translate(562.3 468)" fill="#fff"/>
    <path id="Pfad_311" data-name="Pfad 311" d="M191.4,253.2l-1.3-3.4h-4.3l-1.3,3.4h-1.3l4.3-10.9h1.1l4.3,10.9Zm-1.8-4.6-1.3-3.4a10.313,10.313,0,0,1-.5-1.6,14.244,14.244,0,0,1-.5,1.6l-1.3,3.4Z" transform="translate(562.3 468)" fill="#fff"/>
    <path id="Pfad_312" data-name="Pfad 312" d="M203,253.2h-1.3v-5.1H196v5.1h-1.3V242.4H196V247h5.7v-4.6H203Z" transform="translate(562.3 468)" fill="#fff"/>
    <path id="Pfad_313" data-name="Pfad 313" d="M207.8,248.7v4.5h-1.3V242.4h3a4.562,4.562,0,0,1,2.9.8,2.927,2.927,0,0,1,1,2.3,2.863,2.863,0,0,1-2.2,2.9l2.9,4.9h-1.5l-2.6-4.5h-2.2Zm0-1.1h1.7a3.677,3.677,0,0,0,2-.5,2.111,2.111,0,0,0,.6-1.6,1.755,1.755,0,0,0-.6-1.5,3.439,3.439,0,0,0-2-.5h-1.6v4.1Z" transform="translate(562.3 468)" fill="#fff"/>
    <path id="Pfad_314" data-name="Pfad 314" d="M222.5,253.2h-6V242.4h6v1.1h-4.8V247h4.5v1.1h-4.5v4h4.8Z" transform="translate(562.3 468)" fill="#fff"/>
    <path id="Pfad_315" data-name="Pfad 315" d="M234,253.2h-1.4l-5.9-9.1h-.1c.1,1.1.1,2,.1,2.9v6.1h-1.2V242.3h1.4l5.9,9h.1a9.285,9.285,0,0,0-.1-1.3v-7.7H234Z" transform="translate(562.3 468)" fill="#fff"/>
    <path id="Pfad_317" data-name="Pfad 317" d="M-97.22-6.548a6.4,6.4,0,0,1-1.767,4.865A7.1,7.1,0,0,1-104.076,0h-3.595V-12.85h3.973A6.573,6.573,0,0,1-98.925-11.2,6.174,6.174,0,0,1-97.22-6.548Zm-2.215.07q0-4.614-4.315-4.614h-1.819v9.325h1.494Q-99.435-1.767-99.435-6.478ZM-92.615,0H-94.68V-9.721h2.065ZM-94.8-12.3a1.144,1.144,0,0,1,.3-.853,1.182,1.182,0,0,1,.866-.3,1.156,1.156,0,0,1,.848.3,1.144,1.144,0,0,1,.3.853,1.122,1.122,0,0,1-.3.831,1.147,1.147,0,0,1-.848.3,1.171,1.171,0,0,1-.866-.3A1.122,1.122,0,0,1-94.8-12.3Zm13.351,2.575v1.134l-1.661.308a2.681,2.681,0,0,1,.378.756,2.982,2.982,0,0,1,.149.949A2.908,2.908,0,0,1-83.624-4.21a4.34,4.34,0,0,1-2.856.861,4.632,4.632,0,0,1-.844-.07,1.164,1.164,0,0,0-.668.967.537.537,0,0,0,.312.5,2.7,2.7,0,0,0,1.147.167h1.7a3.772,3.772,0,0,1,2.443.686A2.412,2.412,0,0,1-81.558.879,2.876,2.876,0,0,1-82.92,3.428a7.173,7.173,0,0,1-3.937.9,5.434,5.434,0,0,1-3.032-.7,2.273,2.273,0,0,1-1.046-2A2.133,2.133,0,0,1-90.369.11a3.038,3.038,0,0,1,1.586-.848,1.552,1.552,0,0,1-.681-.567,1.431,1.431,0,0,1-.268-.822,1.415,1.415,0,0,1,.308-.923A3.549,3.549,0,0,1-88.51-3.8a2.707,2.707,0,0,1-1.226-1.059,3.115,3.115,0,0,1-.47-1.718,3.08,3.08,0,0,1,1-2.452,4.194,4.194,0,0,1,2.843-.87,6.921,6.921,0,0,1,.866.057,5.45,5.45,0,0,1,.681.119ZM-89.09,1.512a1.136,1.136,0,0,0,.6,1.028A3.309,3.309,0,0,0-86.8,2.9a5.112,5.112,0,0,0,2.514-.483,1.449,1.449,0,0,0,.826-1.283.963.963,0,0,0-.453-.9,3.635,3.635,0,0,0-1.683-.268h-1.564a2.2,2.2,0,0,0-1.411.417A1.369,1.369,0,0,0-89.09,1.512Zm.888-8.086a1.956,1.956,0,0,0,.47,1.406,1.778,1.778,0,0,0,1.349.492q1.793,0,1.793-1.916a2.173,2.173,0,0,0-.444-1.463,1.686,1.686,0,0,0-1.349-.514,1.739,1.739,0,0,0-1.358.51A2.143,2.143,0,0,0-88.2-6.574ZM-77.585,0h-2.065V-9.721h2.065Zm-2.188-12.3a1.144,1.144,0,0,1,.3-.853,1.182,1.182,0,0,1,.866-.3,1.156,1.156,0,0,1,.848.3,1.144,1.144,0,0,1,.3.853,1.122,1.122,0,0,1-.3.831,1.147,1.147,0,0,1-.848.3,1.171,1.171,0,0,1-.866-.3A1.122,1.122,0,0,1-79.774-12.3Zm8.763,10.8A5.023,5.023,0,0,0-69.5-1.731V-.176a4.169,4.169,0,0,1-.883.25,6.086,6.086,0,0,1-1.121.1q-2.936,0-2.936-3.094V-8.156h-1.327V-9.07l1.424-.756.7-2.057h1.274v2.162H-69.6v1.564h-2.769v5.2a1.46,1.46,0,0,0,.374,1.1A1.362,1.362,0,0,0-71.011-1.494ZM-61.475,0l-.413-1.354h-.07A3.982,3.982,0,0,1-63.374-.145,4.475,4.475,0,0,1-65.2.176,3.094,3.094,0,0,1-67.438-.6a2.894,2.894,0,0,1-.8-2.188,2.57,2.57,0,0,1,1.116-2.268,6.436,6.436,0,0,1,3.4-.835l1.679-.053V-6.46a1.965,1.965,0,0,0-.435-1.393,1.774,1.774,0,0,0-1.349-.461,4.665,4.665,0,0,0-1.433.22,10.811,10.811,0,0,0-1.318.519l-.668-1.477a7.189,7.189,0,0,1,1.731-.628A7.968,7.968,0,0,1-63.743-9.9a4.2,4.2,0,0,1,2.8.809A3.166,3.166,0,0,1-60-6.548V0Zm-3.076-1.406a2.558,2.558,0,0,0,1.806-.628A2.278,2.278,0,0,0-62.064-3.8v-.844l-1.248.053a4.27,4.27,0,0,0-2.123.488A1.482,1.482,0,0,0-66.1-2.769a1.3,1.3,0,0,0,.387,1.006A1.661,1.661,0,0,0-64.551-1.406ZM-55.05,0h-2.065V-13.676h2.065Zm5.019,0H-52.1V-9.721h2.065ZM-52.22-12.3a1.144,1.144,0,0,1,.3-.853,1.182,1.182,0,0,1,.866-.3,1.156,1.156,0,0,1,.848.3,1.144,1.144,0,0,1,.3.853,1.122,1.122,0,0,1-.3.831,1.147,1.147,0,0,1-.848.3,1.171,1.171,0,0,1-.866-.3A1.122,1.122,0,0,1-52.22-12.3Zm11.672,9.527A2.543,2.543,0,0,1-41.585-.584a4.966,4.966,0,0,1-2.971.76,7.017,7.017,0,0,1-3.12-.589V-2.2a7.66,7.66,0,0,0,3.19.791q1.907,0,1.907-1.151a.912.912,0,0,0-.211-.615,2.5,2.5,0,0,0-.694-.51,11.949,11.949,0,0,0-1.345-.6,6.22,6.22,0,0,1-2.272-1.3,2.407,2.407,0,0,1-.593-1.687,2.216,2.216,0,0,1,1.006-1.938A4.776,4.776,0,0,1-43.95-9.9a7.754,7.754,0,0,1,3.243.694l-.668,1.556A7.213,7.213,0,0,0-44.02-8.3q-1.635,0-1.635.932a.937.937,0,0,0,.426.773,9.374,9.374,0,0,0,1.859.87,8.5,8.5,0,0,1,1.749.853,2.548,2.548,0,0,1,.809.892A2.582,2.582,0,0,1-40.548-2.769ZM-36.25,0h-2.065V-9.721h2.065Zm-2.188-12.3a1.144,1.144,0,0,1,.3-.853,1.182,1.182,0,0,1,.866-.3,1.156,1.156,0,0,1,.848.3,1.144,1.144,0,0,1,.3.853,1.122,1.122,0,0,1-.3.831,1.147,1.147,0,0,1-.848.3,1.171,1.171,0,0,1-.866-.3A1.122,1.122,0,0,1-38.439-12.3ZM-29.052.176A4.7,4.7,0,0,1-32.6-1.147,5.021,5.021,0,0,1-33.877-4.79a5.509,5.509,0,0,1,1.187-3.744A4.1,4.1,0,0,1-29.43-9.9a4.006,4.006,0,0,1,3.041,1.169,4.467,4.467,0,0,1,1.116,3.217v1.116H-31.75a3.193,3.193,0,0,0,.765,2.175,2.663,2.663,0,0,0,2.03.76,7.5,7.5,0,0,0,1.6-.163,8.408,8.408,0,0,0,1.6-.541V-.483a6.342,6.342,0,0,1-1.529.51A9.378,9.378,0,0,1-29.052.176Zm-.378-8.508a2.075,2.075,0,0,0-1.578.624,2.974,2.974,0,0,0-.708,1.819H-27.3a2.691,2.691,0,0,0-.58-1.824A1.984,1.984,0,0,0-29.43-8.332ZM-18-9.9a4.972,4.972,0,0,1,1.028.088l-.2,1.925a3.9,3.9,0,0,0-.914-.105,2.645,2.645,0,0,0-2.008.809,2.923,2.923,0,0,0-.769,2.1V0h-2.065V-9.721h1.617l.272,1.714h.105a3.851,3.851,0,0,1,1.261-1.38A3,3,0,0,1-18-9.9ZM-8.31,0-8.6-1.274h-.105A2.931,2.931,0,0,1-9.932-.211a4.1,4.1,0,0,1-1.815.387A3.563,3.563,0,0,1-14.383-.7a3.643,3.643,0,0,1-.87-2.663V-9.721h2.083v5.994a2.6,2.6,0,0,0,.457,1.674,1.745,1.745,0,0,0,1.433.558,2.281,2.281,0,0,0,1.912-.778,4.286,4.286,0,0,0,.611-2.606V-9.721h2.074V0ZM4.812,0H2.738V-5.977a2.616,2.616,0,0,0-.453-1.679A1.75,1.75,0,0,0,.848-8.209a2.285,2.285,0,0,0-1.916.773,4.27,4.27,0,0,0-.606,2.593V0H-3.74V-9.721h1.617l.29,1.274h.105A2.876,2.876,0,0,1-.479-9.519,4.182,4.182,0,0,1,1.314-9.9q3.5,0,3.5,3.56ZM15.9-9.721v1.134l-1.661.308a2.681,2.681,0,0,1,.378.756,2.982,2.982,0,0,1,.149.949A2.908,2.908,0,0,1,13.724-4.21a4.34,4.34,0,0,1-2.856.861,4.632,4.632,0,0,1-.844-.07,1.164,1.164,0,0,0-.668.967.537.537,0,0,0,.312.5,2.7,2.7,0,0,0,1.147.167h1.7a3.772,3.772,0,0,1,2.443.686A2.412,2.412,0,0,1,15.79.879a2.876,2.876,0,0,1-1.362,2.549,7.173,7.173,0,0,1-3.937.9,5.434,5.434,0,0,1-3.032-.7,2.273,2.273,0,0,1-1.046-2A2.133,2.133,0,0,1,6.979.11,3.038,3.038,0,0,1,8.565-.738a1.552,1.552,0,0,1-.681-.567,1.431,1.431,0,0,1-.268-.822,1.415,1.415,0,0,1,.308-.923A3.549,3.549,0,0,1,8.837-3.8,2.707,2.707,0,0,1,7.611-4.856a3.115,3.115,0,0,1-.47-1.718,3.08,3.08,0,0,1,1-2.452,4.194,4.194,0,0,1,2.843-.87,6.921,6.921,0,0,1,.866.057,5.45,5.45,0,0,1,.681.119ZM8.257,1.512a1.136,1.136,0,0,0,.6,1.028,3.309,3.309,0,0,0,1.692.36,5.112,5.112,0,0,0,2.514-.483,1.449,1.449,0,0,0,.826-1.283.963.963,0,0,0-.453-.9,3.635,3.635,0,0,0-1.683-.268H10.191A2.2,2.2,0,0,0,8.78.382,1.369,1.369,0,0,0,8.257,1.512Zm.888-8.086a1.956,1.956,0,0,0,.47,1.406,1.778,1.778,0,0,0,1.349.492q1.793,0,1.793-1.916a2.173,2.173,0,0,0-.444-1.463,1.686,1.686,0,0,0-1.349-.514,1.739,1.739,0,0,0-1.358.51A2.143,2.143,0,0,0,9.145-6.574ZM30.564,0H28.49V-5.994a2.718,2.718,0,0,0-.422-1.666,1.557,1.557,0,0,0-1.318-.549A2.011,2.011,0,0,0,25-7.431a4.564,4.564,0,0,0-.558,2.588V0H22.373V-9.721H23.99l.29,1.274h.105a2.693,2.693,0,0,1,1.173-1.072A3.783,3.783,0,0,1,27.25-9.9a2.956,2.956,0,0,1,2.971,1.529h.141a2.963,2.963,0,0,1,1.213-1.125,3.849,3.849,0,0,1,1.793-.4,3.265,3.265,0,0,1,2.536.879,3.892,3.892,0,0,1,.8,2.681V0H34.633V-5.994a2.7,2.7,0,0,0-.426-1.666,1.569,1.569,0,0,0-1.323-.549,2.05,2.05,0,0,0-1.762.751,3.874,3.874,0,0,0-.558,2.307ZM41.647,0H39.582V-9.721h2.065ZM39.458-12.3a1.144,1.144,0,0,1,.3-.853,1.182,1.182,0,0,1,.866-.3,1.156,1.156,0,0,1,.848.3,1.144,1.144,0,0,1,.3.853,1.122,1.122,0,0,1-.3.831,1.147,1.147,0,0,1-.848.3,1.171,1.171,0,0,1-.866-.3A1.122,1.122,0,0,1,39.458-12.3Zm8.763,10.8a5.023,5.023,0,0,0,1.512-.237V-.176a4.169,4.169,0,0,1-.883.25,6.086,6.086,0,0,1-1.121.1q-2.936,0-2.936-3.094V-8.156H43.466V-9.07l1.424-.756.7-2.057h1.274v2.162h2.769v1.564H46.868v5.2a1.46,1.46,0,0,0,.374,1.1A1.362,1.362,0,0,0,48.221-1.494Zm8.35-11.355h3.814a7.24,7.24,0,0,1,3.836.773A2.708,2.708,0,0,1,65.4-9.633a2.961,2.961,0,0,1-.58,1.872,2.594,2.594,0,0,1-1.67.94v.088a3.316,3.316,0,0,1,1.991,1.006,3.044,3.044,0,0,1,.637,2.035A3.3,3.3,0,0,1,64.573-.98,5.2,5.2,0,0,1,61.211,0H56.571Zm2.1,5.309h2.021a3.461,3.461,0,0,0,1.925-.417,1.6,1.6,0,0,0,.606-1.419,1.422,1.422,0,0,0-.655-1.31,4.09,4.09,0,0,0-2.079-.4H58.671Zm0,1.705v4.069H60.9a3.286,3.286,0,0,0,1.991-.505,1.866,1.866,0,0,0,.672-1.6,1.694,1.694,0,0,0-.686-1.485A3.633,3.633,0,0,0,60.8-5.836Zm18.185.958A5.306,5.306,0,0,1,75.634-1.16a4.377,4.377,0,0,1-3.4,1.336,4.66,4.66,0,0,1-2.408-.615,4.062,4.062,0,0,1-1.608-1.767,6.017,6.017,0,0,1-.562-2.672,5.27,5.27,0,0,1,1.213-3.691A4.4,4.4,0,0,1,72.286-9.9a4.282,4.282,0,0,1,3.34,1.358A5.245,5.245,0,0,1,76.856-4.878Zm-7.075,0q0,3.366,2.487,3.366,2.461,0,2.461-3.366,0-3.331-2.479-3.331a2.113,2.113,0,0,0-1.885.861A4.383,4.383,0,0,0,69.781-4.878ZM87.781,0H85.707V-5.977a2.616,2.616,0,0,0-.453-1.679,1.75,1.75,0,0,0-1.437-.554,2.285,2.285,0,0,0-1.916.773,4.27,4.27,0,0,0-.606,2.593V0H79.229V-9.721h1.617l.29,1.274h.105A2.876,2.876,0,0,1,82.49-9.519,4.182,4.182,0,0,1,84.283-9.9q3.5,0,3.5,3.56ZM97.51,0l-.29-1.274h-.105A2.931,2.931,0,0,1,95.889-.211a4.1,4.1,0,0,1-1.815.387A3.563,3.563,0,0,1,91.437-.7a3.643,3.643,0,0,1-.87-2.663V-9.721H92.65v5.994a2.6,2.6,0,0,0,.457,1.674,1.745,1.745,0,0,0,1.433.558,2.281,2.281,0,0,0,1.912-.778,4.286,4.286,0,0,0,.611-2.606V-9.721h2.074V0Zm11.1-2.769a2.543,2.543,0,0,1-1.037,2.184,4.966,4.966,0,0,1-2.971.76,7.017,7.017,0,0,1-3.12-.589V-2.2a7.66,7.66,0,0,0,3.19.791q1.907,0,1.907-1.151a.912.912,0,0,0-.211-.615,2.5,2.5,0,0,0-.694-.51,11.949,11.949,0,0,0-1.345-.6,6.22,6.22,0,0,1-2.272-1.3,2.407,2.407,0,0,1-.593-1.687,2.216,2.216,0,0,1,1.006-1.938,4.776,4.776,0,0,1,2.738-.69,7.754,7.754,0,0,1,3.243.694l-.668,1.556a7.213,7.213,0,0,0-2.646-.65q-1.635,0-1.635.932a.937.937,0,0,0,.426.773,9.374,9.374,0,0,0,1.859.87,8.5,8.5,0,0,1,1.749.853,2.548,2.548,0,0,1,.809.892A2.582,2.582,0,0,1,108.611-2.769Z" transform="translate(735.399 675)" fill="#575656"/>
    <path id="Pfad_316" data-name="Pfad 316" d="M5.8,34H3.141V11.156H15.875v2.359H5.8v8.359h9.469v2.359H5.8Zm28.25-8.578a9.447,9.447,0,0,1-2.109,6.539,7.429,7.429,0,0,1-5.828,2.352,7.719,7.719,0,0,1-4.078-1.078,7.116,7.116,0,0,1-2.75-3.094,10.782,10.782,0,0,1-.969-4.719A9.432,9.432,0,0,1,20.406,18.9a7.4,7.4,0,0,1,5.813-2.336,7.244,7.244,0,0,1,5.711,2.391A9.406,9.406,0,0,1,34.047,25.422ZM21,25.422a8.129,8.129,0,0,0,1.313,5,4.556,4.556,0,0,0,3.859,1.719,4.586,4.586,0,0,0,3.867-1.711,8.087,8.087,0,0,0,1.32-5.008,7.957,7.957,0,0,0-1.32-4.961,4.639,4.639,0,0,0-3.9-1.7A4.565,4.565,0,0,0,22.3,20.438,8.046,8.046,0,0,0,21,25.422Zm.766-13.187A1.345,1.345,0,0,1,23.172,10.7a1.544,1.544,0,0,1,1.023.359,1.447,1.447,0,0,1,.43,1.172,1.4,1.4,0,0,1-1.453,1.547,1.411,1.411,0,0,1-.992-.383A1.511,1.511,0,0,1,21.766,12.234Zm5.953,0A1.345,1.345,0,0,1,29.125,10.7a1.522,1.522,0,0,1,1.008.359,1.447,1.447,0,0,1,.43,1.172,1.4,1.4,0,0,1-1.437,1.547,1.411,1.411,0,0,1-.992-.383A1.511,1.511,0,0,1,27.719,12.234Zm18.688,4.328a10.149,10.149,0,0,1,2.047.188l-.359,2.406a8.835,8.835,0,0,0-1.875-.234,4.564,4.564,0,0,0-3.555,1.688,6.153,6.153,0,0,0-1.477,4.2V34H38.594V16.875h2.141l.3,3.172h.125a7.528,7.528,0,0,1,2.3-2.578A5.171,5.171,0,0,1,46.406,16.563ZM63.313,31.7h-.141A6.1,6.1,0,0,1,57.8,34.313a6.359,6.359,0,0,1-5.227-2.3A10.11,10.11,0,0,1,50.7,25.484a10.281,10.281,0,0,1,1.875-6.578A6.309,6.309,0,0,1,57.8,16.563a6.227,6.227,0,0,1,5.344,2.531h.2l-.109-1.234-.062-1.2V9.688h2.594V34H63.656Zm-5.187.438A4.722,4.722,0,0,0,61.977,30.7a7.3,7.3,0,0,0,1.2-4.664v-.547q0-3.641-1.211-5.2a4.6,4.6,0,0,0-3.867-1.555A3.97,3.97,0,0,0,54.6,20.508a8.818,8.818,0,0,0-1.211,5.008,8.454,8.454,0,0,0,1.2,4.953A4.075,4.075,0,0,0,58.125,32.141ZM78.5,34.313A7.868,7.868,0,0,1,72.508,32a8.952,8.952,0,0,1-2.2-6.422A9.928,9.928,0,0,1,72.352,19a6.773,6.773,0,0,1,5.477-2.437,6.458,6.458,0,0,1,5.094,2.117A8.114,8.114,0,0,1,84.8,24.266v1.641H73a6.788,6.788,0,0,0,1.523,4.578,5.269,5.269,0,0,0,4.07,1.563,13.793,13.793,0,0,0,5.469-1.156V33.2a13.726,13.726,0,0,1-2.6.852A14.62,14.62,0,0,1,78.5,34.313Zm-.7-15.578a4.236,4.236,0,0,0-3.289,1.344A6.194,6.194,0,0,0,73.063,23.8h8.953a5.7,5.7,0,0,0-1.094-3.758A3.85,3.85,0,0,0,77.8,18.734Zm19.234-2.172a10.149,10.149,0,0,1,2.047.188l-.359,2.406a8.835,8.835,0,0,0-1.875-.234,4.564,4.564,0,0,0-3.555,1.688,6.153,6.153,0,0,0-1.477,4.2V34H89.219V16.875h2.141l.3,3.172h.125a7.528,7.528,0,0,1,2.3-2.578A5.171,5.171,0,0,1,97.031,16.563Zm7.688.313V27.984a4.47,4.47,0,0,0,.953,3.125,3.883,3.883,0,0,0,2.984,1.031,4.869,4.869,0,0,0,3.93-1.469q1.242-1.469,1.242-4.8v-9h2.594V34h-2.141l-.375-2.3h-.141a5.17,5.17,0,0,1-2.211,1.938,7.431,7.431,0,0,1-3.227.672,6.546,6.546,0,0,1-4.68-1.484q-1.555-1.484-1.555-4.75v-11.2ZM133.641,34V22.922a4.47,4.47,0,0,0-.953-3.125,3.883,3.883,0,0,0-2.984-1.031,4.922,4.922,0,0,0-3.937,1.453q-1.25,1.453-1.25,4.8V34h-2.594V16.875h2.109l.422,2.344h.125a5.3,5.3,0,0,1,2.234-1.961,7.26,7.26,0,0,1,3.2-.7,6.5,6.5,0,0,1,4.656,1.492q1.563,1.492,1.563,4.773V34Zm21.938-17.125v1.641l-3.172.375a5.57,5.57,0,0,1,1.125,3.422,5.062,5.062,0,0,1-1.719,4.016,6.933,6.933,0,0,1-4.719,1.5,7.858,7.858,0,0,1-1.437-.125,2.553,2.553,0,0,0-1.656,2.2,1.119,1.119,0,0,0,.578,1.039,4.223,4.223,0,0,0,1.984.336h3.031a6.788,6.788,0,0,1,4.273,1.172,4.072,4.072,0,0,1,1.492,3.406,4.863,4.863,0,0,1-2.281,4.336q-2.281,1.492-6.656,1.492a9.094,9.094,0,0,1-5.18-1.25,4.036,4.036,0,0,1-1.82-3.531,3.966,3.966,0,0,1,1-2.7,5.092,5.092,0,0,1,2.813-1.547,2.713,2.713,0,0,1-1.1-.922,2.44,2.44,0,0,1-.445-1.453,2.758,2.758,0,0,1,.5-1.641,5.257,5.257,0,0,1,1.578-1.359,4.626,4.626,0,0,1-2.164-1.859,5.464,5.464,0,0,1-.836-3,5.541,5.541,0,0,1,1.688-4.336,6.89,6.89,0,0,1,4.781-1.523,8.694,8.694,0,0,1,2.422.313Zm-13.656,20a2.324,2.324,0,0,0,1.172,2.109,6.468,6.468,0,0,0,3.359.719,9.374,9.374,0,0,0,4.836-.977,2.99,2.99,0,0,0,1.57-2.648,2.1,2.1,0,0,0-.859-1.93,6.675,6.675,0,0,0-3.234-.539h-3.109a4.1,4.1,0,0,0-2.75.844A3.015,3.015,0,0,0,141.922,36.875Zm1.406-14.516a3.487,3.487,0,0,0,1.016,2.719,4.055,4.055,0,0,0,2.828.922q3.8,0,3.8-3.687,0-3.859-3.844-3.859a3.805,3.805,0,0,0-2.812.984A3.964,3.964,0,0,0,143.328,22.359Zm35.125,6.969a4.29,4.29,0,0,1-1.781,3.688,8.373,8.373,0,0,1-5,1.3,10.872,10.872,0,0,1-5.312-1.078V30.828a12.848,12.848,0,0,0,2.648.984,11.06,11.06,0,0,0,2.727.359,6.183,6.183,0,0,0,3.125-.648,2.232,2.232,0,0,0,.227-3.687,13.641,13.641,0,0,0-3.383-1.68,18.343,18.343,0,0,1-3.4-1.555,4.642,4.642,0,0,1-1.5-1.508,3.932,3.932,0,0,1-.492-2.016,3.842,3.842,0,0,1,1.7-3.3,7.936,7.936,0,0,1,4.672-1.211,13.67,13.67,0,0,1,5.406,1.125l-.922,2.109a12.41,12.41,0,0,0-4.672-1.062,5.375,5.375,0,0,0-2.781.578,1.788,1.788,0,0,0-.937,1.594,1.941,1.941,0,0,0,.352,1.172,3.469,3.469,0,0,0,1.133.922,25.315,25.315,0,0,0,3,1.266,11.208,11.208,0,0,1,4.117,2.234A3.94,3.94,0,0,1,178.453,29.328ZM185.266,34h-2.594V16.875h2.594Zm-2.812-21.766a1.723,1.723,0,0,1,.438-1.3,1.62,1.62,0,0,1,2.172.008,1.692,1.692,0,0,1,.453,1.3,1.718,1.718,0,0,1-.453,1.3,1.587,1.587,0,0,1-2.172,0A1.755,1.755,0,0,1,182.453,12.234Zm15.156,22.078a7.309,7.309,0,0,1-5.758-2.289,9.413,9.413,0,0,1-2.039-6.477,9.707,9.707,0,0,1,2.07-6.641,7.454,7.454,0,0,1,5.9-2.344,11.7,11.7,0,0,1,2.469.266,8.133,8.133,0,0,1,1.938.625l-.8,2.2a12.2,12.2,0,0,0-1.875-.57,8.372,8.372,0,0,0-1.8-.227q-5.219,0-5.219,6.656a7.926,7.926,0,0,0,1.273,4.844,4.43,4.43,0,0,0,3.773,1.688,11.537,11.537,0,0,0,4.391-.922v2.3A9.358,9.358,0,0,1,197.609,34.313ZM217.719,34V22.922a4.47,4.47,0,0,0-.953-3.125,3.883,3.883,0,0,0-2.984-1.031,4.89,4.89,0,0,0-3.945,1.469q-1.242,1.469-1.242,4.813V34H206V9.688h2.594v7.359a16.036,16.036,0,0,1-.125,2.2h.156A5.29,5.29,0,0,1,210.8,17.3a7.086,7.086,0,0,1,3.227-.711,6.607,6.607,0,0,1,4.711,1.492q1.57,1.492,1.57,4.742V34Zm15.156.313A7.868,7.868,0,0,1,226.883,32a8.952,8.952,0,0,1-2.2-6.422A9.928,9.928,0,0,1,226.727,19a6.773,6.773,0,0,1,5.477-2.437A6.458,6.458,0,0,1,237.3,18.68a8.114,8.114,0,0,1,1.875,5.586v1.641h-11.8a6.788,6.788,0,0,0,1.523,4.578,5.269,5.269,0,0,0,4.07,1.563,13.793,13.793,0,0,0,5.469-1.156V33.2a13.726,13.726,0,0,1-2.6.852A14.62,14.62,0,0,1,232.875,34.313Zm-.7-15.578a4.236,4.236,0,0,0-3.289,1.344,6.194,6.194,0,0,0-1.445,3.719h8.953a5.7,5.7,0,0,0-1.094-3.758A3.85,3.85,0,0,0,232.172,18.734Zm19.234-2.172a10.149,10.149,0,0,1,2.047.188l-.359,2.406a8.835,8.835,0,0,0-1.875-.234,4.564,4.564,0,0,0-3.555,1.688,6.153,6.153,0,0,0-1.477,4.2V34h-2.594V16.875h2.141l.3,3.172h.125a7.528,7.528,0,0,1,2.3-2.578A5.171,5.171,0,0,1,251.406,16.563ZM268.375,34V22.922a4.47,4.47,0,0,0-.953-3.125,3.883,3.883,0,0,0-2.984-1.031,4.922,4.922,0,0,0-3.937,1.453q-1.25,1.453-1.25,4.8V34h-2.594V16.875h2.109l.422,2.344h.125a5.3,5.3,0,0,1,2.234-1.961,7.26,7.26,0,0,1,3.2-.7,6.5,6.5,0,0,1,4.656,1.492q1.562,1.492,1.563,4.773V34Zm10.266-6.3H277l-.8-16.547h3.234Zm-2.719,4.641q0-2.125,1.875-2.125a1.784,1.784,0,0,1,1.4.547,2.283,2.283,0,0,1,.492,1.578,2.24,2.24,0,0,1-.5,1.555,1.777,1.777,0,0,1-1.391.555,1.9,1.9,0,0,1-1.344-.492A2.12,2.12,0,0,1,275.922,32.344Z" transform="translate(593 607)" fill="#cc0f12"/>
  </g>
</svg>
