<?xml version="1.0" encoding="utf-8"?>
<!-- Generator: Adobe Illustrator 24.2.3, SVG Export Plug-In . SVG Version: 6.00 Build 0)  -->
<svg version="1.1" id="Ebene_1" xmlns="http://www.w3.org/2000/svg" xmlns:xlink="http://www.w3.org/1999/xlink" x="0px" y="0px"
	 viewBox="0 0 215.6 43.8" style="enable-background:new 0 0 215.6 43.8;" xml:space="preserve">
<style type="text/css">
	.st0{fill:#CC1013;}
	.st1{fill:#575656;}
	.st2{fill:#9E120A;}
</style>
<g id="Ebene_zur_Sichtbarkeit">
</g>
<g id="Ebene_1_1_">
	<g>
		<g>
			<rect x="104.1" y="39.2" class="st0" width="109.1" height="2.1"/>
			<g>
				<path class="st1" d="M107.8,13.5c-1.6,0-2.7-0.4-3.6-1.4l0.8-0.8c0.9,0.9,1.7,1.2,2.9,1.2c1.6,0,2.5-0.7,2.5-2
					c0-0.6-0.2-1-0.5-1.3c-0.3-0.3-0.6-0.4-1.4-0.5l-1.2-0.2c-0.8-0.1-1.5-0.4-2-0.8c-0.5-0.5-0.8-1.1-0.8-2c0-1.8,1.3-3,3.4-3
					c1.4,0,2.3,0.4,3.2,1.2l-0.7,0.7c-0.6-0.6-1.4-0.9-2.5-0.9c-1.4,0-2.3,0.8-2.3,2c0,0.5,0.1,1,0.5,1.2c0.3,0.3,0.8,0.5,1.4,0.6
					l1.2,0.2c1,0.1,1.5,0.3,1.9,0.8c0.6,0.5,0.9,1.2,0.9,2.1C111.5,12.3,110,13.5,107.8,13.5"/>
				<path class="st1" d="M119,4.4c-0.5-0.5-1.1-0.8-1.8-0.8s-1.4,0.3-1.8,0.8c-0.7,0.7-0.7,1.5-0.7,3.7c0,2.2,0.1,3,0.7,3.7
					c0.5,0.5,1.1,0.7,1.8,0.7s1.4-0.3,1.8-0.7c0.7-0.7,0.7-1.5,0.7-3.7C119.8,5.8,119.7,5.1,119,4.4 M119.9,12.4
					c-0.7,0.7-1.5,1.1-2.7,1.1c-1.1,0-2-0.4-2.7-1.1c-1-1-1.1-1.9-1.1-4.4s0.1-3.4,1.1-4.4c0.7-0.7,1.6-1.1,2.7-1.1s2,0.4,2.7,1.1
					c1,1,1.1,1.9,1.1,4.4S120.9,11.4,119.9,12.4"/>
			</g>
			<polygon class="st1" points="123.6,13.4 123.6,2.7 124.8,2.7 124.8,12.4 130.2,12.4 130.2,13.4 			"/>
			<g>
				<path class="st1" d="M135.2,13.5c-2.2,0-3.7-1.5-3.7-3.6V2.7h1.1v7.1c0,1.6,1,2.7,2.6,2.7s2.6-1.1,2.6-2.7V2.7h1.1v7.2
					C138.9,12,137.4,13.5,135.2,13.5"/>
			</g>
			<polygon class="st1" points="145,3.7 145,13.4 143.9,13.4 143.9,3.7 140.8,3.7 140.8,2.7 148.1,2.7 148.1,3.7 			"/>
			<rect x="150.1" y="2.7" class="st1" width="1.1" height="10.7"/>
			<g>
				<path class="st1" d="M159.5,4.4c-0.5-0.5-1.1-0.8-1.8-0.8c-0.7,0-1.4,0.3-1.8,0.8c-0.7,0.7-0.7,1.5-0.7,3.7c0,2.2,0.1,3,0.7,3.7
					c0.5,0.5,1.1,0.7,1.8,0.7c0.7,0,1.4-0.3,1.8-0.7c0.7-0.7,0.7-1.5,0.7-3.7C160.3,5.8,160.2,5.1,159.5,4.4 M160.3,12.4
					c-0.7,0.7-1.5,1.1-2.7,1.1c-1.1,0-2-0.4-2.7-1.1c-1-1-1.1-1.9-1.1-4.4s0.1-3.4,1.1-4.4c0.7-0.7,1.6-1.1,2.7-1.1
					c1.1,0,2,0.4,2.7,1.1c1,1,1.1,1.9,1.1,4.4S161.3,11.4,160.3,12.4"/>
			</g>
			<polygon class="st1" points="170.9,13.4 165.2,4.8 165.2,13.4 164.1,13.4 164.1,2.7 165.2,2.7 170.8,11.2 170.8,2.7 172,2.7 
				172,13.4 			"/>
			<g>
				<path class="st1" d="M177.8,13.5c-1.6,0-2.7-0.4-3.6-1.4l0.8-0.8c0.9,0.9,1.7,1.2,2.9,1.2c1.6,0,2.5-0.7,2.5-2
					c0-0.6-0.2-1-0.5-1.3c-0.3-0.3-0.6-0.4-1.4-0.5l-1.2-0.2c-0.8-0.1-1.5-0.4-2-0.8c-0.5-0.5-0.8-1.1-0.8-2c0-1.8,1.3-3,3.4-3
					c1.4,0,2.3,0.4,3.2,1.2l-0.7,0.7c-0.6-0.6-1.4-0.9-2.5-0.9c-1.4,0-2.3,0.8-2.3,2c0,0.5,0.1,1,0.5,1.2c0.3,0.3,0.8,0.5,1.4,0.6
					l1.2,0.2c1,0.1,1.5,0.3,1.9,0.8c0.6,0.5,0.9,1.2,0.9,2.1C181.5,12.3,180.1,13.5,177.8,13.5"/>
			</g>
			<polygon class="st1" points="188.8,3.7 188.8,7.6 193.5,7.6 193.5,8.7 188.8,8.7 188.8,13.4 187.6,13.4 187.6,2.7 194.3,2.7 
				194.3,3.7 			"/>
			<g>
				<path class="st1" d="M201.2,4.4c-0.5-0.5-1.1-0.8-1.8-0.8s-1.4,0.3-1.8,0.8c-0.7,0.7-0.7,1.5-0.7,3.7c0,2.2,0.1,3,0.7,3.7
					c0.5,0.5,1.1,0.7,1.8,0.7s1.4-0.3,1.8-0.7c0.7-0.7,0.7-1.5,0.7-3.7C202,5.8,201.9,5.1,201.2,4.4 M202,12.4
					c-0.7,0.7-1.5,1.1-2.7,1.1c-1.1,0-2-0.4-2.7-1.1c-1-1-1.1-1.9-1.1-4.4s0.1-3.4,1.1-4.4c0.7-0.7,1.6-1.1,2.7-1.1s2,0.4,2.7,1.1
					c1,1,1.1,1.9,1.1,4.4S203.1,11.4,202,12.4"/>
				<path class="st1" d="M209.8,3.7H207v3.9h2.9c1.2,0,2.1-0.6,2.1-2S211.1,3.7,209.8,3.7 M212,13.4l-2.4-4.7H207v4.7h-1.1V2.7h4.1
					c1.9,0,3.2,1.1,3.2,3c0,1.6-0.9,2.6-2.3,2.9l2.5,4.8H212z"/>
				<path class="st0" d="M110.8,22.5c-0.4-0.6-1.1-0.8-2-0.8h-2v8.8h2c0.9,0,1.5-0.3,2-0.8c0.5-0.6,0.6-1.4,0.6-3.6
					C111.3,23.9,111.3,23.1,110.8,22.5 M113.1,30.8c-1,1.4-2.2,2-4.1,2h-4.9V19.3h4.9c1.8,0,3.1,0.6,4.1,2c0.8,1.2,0.9,2.6,0.9,4.8
					C114,28.3,114,29.7,113.1,30.8"/>
				<path class="st0" d="M122.9,22.2c-0.4-0.4-1-0.7-1.7-0.7c-0.7,0-1.3,0.3-1.7,0.7c-0.5,0.6-0.6,1.2-0.6,3.8s0.2,3.2,0.6,3.8
					c0.4,0.4,1,0.7,1.7,0.7c0.7,0,1.3-0.3,1.7-0.7c0.5-0.6,0.7-1.2,0.7-3.8S123.4,22.8,122.9,22.2 M124.9,31.5
					c-0.9,0.9-2.1,1.4-3.6,1.4c-1.6,0-2.7-0.5-3.6-1.4c-1.4-1.4-1.4-2.9-1.4-5.5s0-4.1,1.4-5.5c0.9-0.9,2.1-1.4,3.6-1.4
					c1.6,0,2.7,0.5,3.6,1.4c1.4,1.4,1.4,2.9,1.4,5.5S126.2,30.2,124.9,31.5"/>
				<path class="st0" d="M133.3,32.9c-1.6,0-2.7-0.5-3.6-1.4c-1.4-1.4-1.4-2.9-1.4-5.5s0-4.1,1.4-5.5c0.9-0.9,2.1-1.4,3.6-1.4
					c2.5,0,4.5,1.4,5,4.3h-2.7c-0.3-1.1-1-1.9-2.3-1.9c-0.7,0-1.3,0.3-1.7,0.7c-0.5,0.6-0.7,1.2-0.7,3.8s0.2,3.3,0.7,3.8
					c0.4,0.4,1,0.7,1.7,0.7c1.3,0,2-0.8,2.3-1.9h2.7C137.8,31.5,135.8,32.9,133.3,32.9"/>
				<path class="st0" d="M145.3,32.9c-2.8,0-5-1.9-5-4.8v-8.9h2.6v8.8c0,1.6,0.9,2.5,2.3,2.5s2.4-0.9,2.4-2.5v-8.8h2.6v8.9
					C150.3,31,148.1,32.9,145.3,32.9"/>
			</g>
			<polygon class="st0" points="162.9,32.8 162.9,24.9 160.3,30.1 158.5,30.1 155.9,24.9 155.9,32.8 153.3,32.8 153.3,19.3 
				155.9,19.3 159.4,26.6 163,19.3 165.6,19.3 165.6,32.8 			"/>
			<polygon class="st0" points="168.7,32.8 168.7,19.3 177.7,19.3 177.7,21.6 171.4,21.6 171.4,24.8 176.7,24.8 176.7,27.2 
				171.4,27.2 171.4,30.5 177.7,30.5 177.7,32.8 			"/>
			<polygon class="st0" points="188.3,32.8 182.9,24.5 182.9,32.8 180.2,32.8 180.2,19.3 182.6,19.3 188,27.6 188,19.3 190.6,19.3 
				190.6,32.8 			"/>
			<polygon class="st0" points="199,21.6 199,32.8 196.3,32.8 196.3,21.6 192.8,21.6 192.8,19.3 202.5,19.3 202.5,21.6 			"/>
			<g>
				<path class="st0" d="M208.4,32.9c-2.1,0-3.6-0.4-5-1.8l1.7-1.7c0.9,0.9,2,1.1,3.3,1.1c1.6,0,2.4-0.6,2.4-1.7
					c0-0.5-0.1-0.8-0.4-1.1c-0.3-0.2-0.5-0.4-1.2-0.5l-1.6-0.2c-1.2-0.2-2-0.5-2.6-1.1c-0.6-0.6-1-1.5-1-2.7c0-2.4,1.8-4.1,4.7-4.1
					c1.9,0,3.2,0.5,4.4,1.6l-1.7,1.7c-0.8-0.8-1.9-0.9-2.8-0.9c-1.4,0-2.1,0.8-2.1,1.7c0,0.4,0.1,0.7,0.4,1c0.3,0.2,0.7,0.4,1.2,0.5
					l1.6,0.2c1.2,0.2,2,0.5,2.6,1.1c0.7,0.7,1,1.6,1,2.9C213.4,31.4,211.2,32.9,208.4,32.9"/>
			</g>
		</g>
		<g>
			<g>
				<path class="st0" d="M91.7,9.4V2.6H74.5v6.8c2.9,3.4,4.6,7.8,4.6,12.6s-1.7,9.2-4.6,12.6v6.8h17.3v-6.9
					c-2.8-3.4-4.6-7.7-4.6-12.5S88.9,12.8,91.7,9.4z"/>
			</g>
			<path class="st0" d="M30.4,28.6C30.4,28.6,30.4,28.6,30.4,28.6c-1.9,2.2-4.7,3.6-7.8,3.6c-5.7,0-10.2-4.6-10.2-10.2
				S17,11.7,22.7,11.7c3.1,0,5.9,1.4,7.8,3.6c0,0,0,0,0,0c1-3.1,2.5-5.9,4.6-8.3c-3.4-2.8-7.7-4.5-12.4-4.5
				C11.9,2.5,3.2,11.3,3.2,22s8.7,19.4,19.4,19.4c4.7,0,9-1.7,12.4-4.5C33,34.5,31.4,31.7,30.4,28.6z"/>
			<g>
				<g>
					<path class="st0" d="M54.1,41.4c-10.7,0-19.4-8.7-19.4-19.4S43.4,2.5,54.1,2.5S73.6,11.3,73.6,22S64.8,41.4,54.1,41.4z
						 M54.1,11.7c-5.7,0-10.2,4.6-10.2,10.2s4.6,10.2,10.2,10.2S64.4,27.6,64.4,22S59.8,11.7,54.1,11.7z"/>
				</g>
			</g>
			<path class="st2" d="M22.7,41.4c4.7,0,9-1.7,12.4-4.5c-2.1-2.4-3.7-5.2-4.6-8.3c0,0,0,0,0,0c-1.9,2.2-4.7,3.6-7.8,3.6
				c-5.7,0-10.2-4.6-10.2-10.2c0-2.8,1.1-5.3,2.9-7.2L8.8,8.3C5.4,11.8,3.2,16.7,3.2,22C3.2,32.7,11.9,41.4,22.7,41.4z"/>
			<path class="st2" d="M91.7,34.4c-2.8-3.4-4.6-7.7-4.6-12.5c0-2,0.3-3.9,0.9-5.8L74.5,2.6v6.8c2.9,3.4,4.6,7.8,4.6,12.6
				s-1.7,9.2-4.6,12.6v6.8h17.3L91.7,34.4L91.7,34.4z"/>
			<path class="st2" d="M54.1,41.4c5.4,0,10.2-2.2,13.7-5.7l-6.5-6.5c-1.9,1.9-4.4,3-7.2,3c-5.7,0-10.2-4.6-10.2-10.2
				c0-2.8,1.1-5.4,3-7.2l-6.5-6.5c-3.5,3.5-5.7,8.4-5.7,13.7C34.7,32.7,43.4,41.4,54.1,41.4z"/>
		</g>
	</g>
</g>
</svg>
