<svg version="1.1" id="Ebene_1" xmlns="http://www.w3.org/2000/svg" x="0" y="0" viewBox="0 0 1056.4 903.9" xml:space="preserve"><style>.st0{fill:#cc1013}.st1{fill:#9e120a}.st2{fill:#575656}</style><g id="Ebene_1_1_"><path class="st0" d="M1042.4 85.3V4.7h-203v79.4c33.9 40 54.5 91.5 54.5 148s-20.6 108.1-54.5 148v80.4h203v-81.3c-33.5-39.7-53.8-91-53.8-146.9s20.3-107.3 53.8-147zM321.4 311.2c-22.2 25.6-54.7 42-91.2 42-66.5 0-120.6-54-120.6-120.6S163.6 112 230.2 112c36.5 0 69.1 16.4 91.2 42v-.2c11.3-36.3 30-69.3 54.5-97.2C336.1 23.9 285.3 4 230.1 4 104 4 1.5 106.5 1.5 232.6S104 461.3 230.1 461.3c55.4 0 106.2-19.9 145.7-52.7-24.4-28.2-43.1-60.9-54.4-97.4z"/><path class="st0" d="M600.3 461.3c-126.1 0-228.6-102.5-228.6-228.6S474.2 4 600.3 4 829 106.5 829 232.6 726.4 461.3 600.3 461.3zm0-349.2c-66.5 0-120.6 54-120.6 120.6s54 120.6 120.6 120.6 120.6-54 120.6-120.6-54-120.6-120.6-120.6z"/><path class="st1" d="M230.1 461.3c55.4 0 106.2-19.9 145.7-52.7-24.5-27.9-43.2-61-54.5-97.2v-.2c-22.2 25.6-54.7 42-91.2 42-66.5 0-120.6-54-120.6-120.6 0-32.8 13.2-62.6 34.4-84.3L67.5 72.1c-40.8 41.1-66 98-66 160.5 0 126.1 102.5 228.7 228.6 228.7zM1042.4 379.1c-33.5-39.7-53.8-91-53.8-146.9 0-23.6 3.7-46.4 10.4-67.9L839.4 4.7v79.4c33.9 40 54.5 91.5 54.5 148s-20.6 108.1-54.5 148v80.4h203v-81.4zM600.3 461.3c63 0 120.1-25.6 161.7-67l-76.4-76.4c-21.9 21.9-52 35.3-85.2 35.3-66.5 0-120.6-54-120.6-120.6 0-33.3 13.6-63.3 35.3-85.2L438.7 71c-41.3 41.3-67 98.6-67 161.4 0 126.3 102.5 228.9 228.6 228.9z"/></g><path class="st0" d="M1.7 883.2h1053.4v20.7H1.7z"/><path class="st2" d="M36.9 635c-15.3 0-25.6-4-35.2-13.6l7.4-7.4c8.5 8.5 16.5 11.2 28 11.2 15.2 0 24.4-7 24.4-19.1 0-5.5-1.5-9.9-5.1-12.9-3.2-2.8-6.1-4-13.5-5.1L31 586.4c-8.1-1.3-14.2-3.8-18.9-7.8-5.3-4.5-8-11-8-19.5 0-17.6 12.7-29 33-29 13.3 0 21.8 3.4 30.7 11.4l-7.2 7c-6.3-5.9-13.3-8.9-24.1-8.9-13.8 0-21.8 7.8-21.8 19.3 0 5.1 1.5 9.3 4.5 11.9 3.2 2.7 8.1 4.5 13.5 5.3l11.9 1.9c9.5 1.5 14 3.2 18.8 7.4 5.5 4.7 8.7 11.7 8.7 20.3.5 18.1-13.8 29.3-35.2 29.3M145.5 547.3c-4.7-4.7-10.8-7.2-17.8-7.2s-13.1 2.5-17.8 7.2c-6.4 6.6-7.2 14.2-7.2 35.4s.8 28.6 7.2 35.4c4.7 4.7 10.8 7.2 17.8 7.2s13.1-2.5 17.8-7.2c6.4-6.6 7.2-14.2 7.2-35.4 0-21.4-.7-28.8-7.2-35.4m7.8 77.5c-6.4 6.4-15 10.2-25.6 10.2-10.8 0-19.5-3.8-25.8-10.2-9.7-9.7-10.2-18.8-10.2-42.3s.6-32.6 10.2-42.3c6.4-6.4 15.2-10 25.8-10s19.3 3.8 25.6 10c9.7 9.7 10.4 18.8 10.4 42.3s-.6 32.6-10.4 42.3M189.7 634.1V531h11.1v93.2h52.7v9.9zM301.5 635c-20.8 0-36-14.4-36-34.9V531h11v68.2c0 15.7 9.9 26 25 26s25-10.2 25-26V531h11v69.2c0 20.4-15.2 34.8-36 34.8M396.2 540.8v93.3h-11v-93.3h-29.7V531h70.6v9.8zM445.5 531h11v103.1h-11zM536.2 547.3c-4.7-4.7-10.8-7.2-17.8-7.2s-13.1 2.5-17.8 7.2c-6.4 6.6-7.2 14.2-7.2 35.4s.8 28.6 7.2 35.4c4.7 4.7 10.8 7.2 17.8 7.2s13.1-2.5 17.8-7.2c6.4-6.6 7.2-14.2 7.2-35.4 0-21.4-.7-28.8-7.2-35.4m7.8 77.5c-6.4 6.4-15 10.2-25.6 10.2-10.8 0-19.5-3.8-25.8-10.2-9.7-9.7-10.2-18.8-10.2-42.3s.6-32.6 10.2-42.3c6.4-6.4 15.2-10 25.8-10 10.6 0 19.3 3.8 25.6 10 9.7 9.7 10.4 18.8 10.4 42.3s-.5 32.6-10.4 42.3M646.3 634.1l-54.9-82.7v82.7h-11V531h10.4l54.8 82.4V531h11.2v103.1zM713 635c-15.3 0-25.6-4-35.2-13.6l7.4-7.4c8.5 8.5 16.5 11.2 28 11.2 15.2 0 24.4-7 24.4-19.1 0-5.5-1.5-9.9-5.1-12.9-3.2-2.8-6.1-4-13.5-5.1l-11.9-1.7c-8.1-1.3-14.2-3.8-18.9-7.8-5.3-4.5-8-11-8-19.5 0-17.6 12.7-29 33-29 13.3 0 21.8 3.4 30.7 11.4l-7.2 7c-6.3-5.9-13.3-8.9-24.1-8.9-13.8 0-21.8 7.8-21.8 19.3 0 5.1 1.5 9.3 4.7 11.9 3.2 2.7 8.1 4.5 13.5 5.3l12 1.9c9.5 1.5 14 3.2 18.8 7.4 5.5 4.7 8.7 11.7 8.7 20.3.2 18.1-13.9 29.3-35.5 29.3M818.8 540.8v37.9h45.3v9.9h-45.3v45.5h-11V531h64v9.8zM938.9 547.3c-4.7-4.7-10.8-7.2-17.8-7.2s-13.1 2.5-17.8 7.2c-6.4 6.6-7.2 14.2-7.2 35.4s.8 28.6 7.2 35.4c4.7 4.7 10.8 7.2 17.8 7.2s13.1-2.5 17.8-7.2c6.4-6.6 7.2-14.2 7.2-35.4.2-21.4-.5-28.8-7.2-35.4m8 77.5c-6.4 6.4-15 10.2-25.6 10.2-10.8 0-19.5-3.8-25.8-10.2-9.7-9.7-10.2-18.8-10.2-42.3s.6-32.6 10.2-42.3c6.4-6.4 15-10 25.8-10s19.3 3.8 25.6 10c9.7 9.7 10.4 18.8 10.4 42.3s-.8 32.6-10.4 42.3M1021.7 540.8h-27.5v37.9h27.5c11.9 0 20.7-6.3 20.7-18.8s-8.5-19.1-20.7-19.1m20.7 93.3l-23.3-45.7h-24.8v45.9h-11V531h39.6c18 0 30.5 10.8 30.5 28.8 0 15-9.1 25-22.4 27.7l24.4 46.8h-13.1v-.2z"/><path class="st0" d="M65.7 721.8c-4.2-5.3-10.4-8.1-19.1-8.1H27.1V799h19.5c8.5 0 14.8-2.8 19.1-8.1 4.7-5.7 5.3-14 5.3-34.5 0-20.6-.5-28.9-5.3-34.6m22.6 80.9c-9.5 13.1-21.8 19.1-39.6 19.1H1.5V690.9h47.4c17.8 0 30.1 6.1 39.6 19.1 8.1 11.2 8.3 24.6 8.3 46.2-.2 21.9-.4 35.3-8.5 46.5M183 719.5c-3.6-4.2-9.5-7-16.3-7-7 0-12.7 2.7-16.5 7-4.7 5.5-6.3 11.7-6.3 36.8 0 25 1.5 31.1 6.3 36.6 3.8 4.2 9.5 7.2 16.5 7.2s12.7-2.8 16.3-7.2c4.7-5.5 6.4-11.6 6.4-36.6s-1.6-31.1-6.4-36.8m18.6 89.7c-8.9 8.7-19.9 13.8-34.9 13.8s-26.3-4.9-35.1-13.8c-13.1-13.1-13.3-27.7-13.3-52.7 0-25 .2-39.8 13.3-52.7 8.9-8.7 20.1-13.8 35.1-13.8 15.2 0 26.2 4.9 34.9 13.8 13.1 13.1 13.5 27.7 13.5 52.7 0 25-.4 39.6-13.5 52.7M283.3 823c-15.2 0-26.2-4.9-35.1-13.8-13.1-13.1-13.3-27.7-13.3-52.7 0-25 .2-39.8 13.3-52.7 9.1-8.7 20.1-13.8 35.1-13.8 24.4 0 43.2 14 47.9 41.3H305c-2.7-10.6-9.1-18.6-21.8-18.6-7 0-12.7 2.7-16.3 6.8-4.7 5.5-6.4 11.9-6.4 37s1.7 31.5 6.4 37c3.6 4.2 9.5 6.8 16.3 6.8 12.7 0 19.5-8 22-18.6h26c-4.7 27.3-23.7 41.3-47.9 41.3M399.4 823c-26.9 0-48.1-18.2-48.1-46v-86h25.6v85c0 15.2 8.9 24.1 22.5 24.1s22.7-9.1 22.7-24.1v-85.1h25.4v86c.1 27.9-21.2 46.1-48.1 46.1M569 821.8v-76.3l-25 49.6h-17.2l-25.2-49.6v76.3H476V690.9h25.2l34.3 70.9 33.9-70.9h25.2v130.9zM625.1 821.8V690.9h86.2v22.7h-60.6v30.7h51.5v23h-51.5v31.8h60.6v22.7zM813.7 821.8l-51.8-80.3v80.3h-25.5V690.9h22.7l51.9 80.2v-80.2h25.6v130.9zM917.1 713.6v108.2h-25.6V713.6h-34.3v-22.7h94v22.7z"/><g><path class="st0" d="M1008.1 823c-19.9 0-34.9-4.2-47.8-17.2l16.5-16.5c8.3 8.3 19.5 11 31.5 11 15.3 0 23.3-5.9 23.3-16.3 0-4.4-1.3-8.1-4-10.8-2.7-2.5-5.1-3.4-11.7-4.4l-15.7-2.5c-11.6-1.7-19.5-5.1-25.4-10.8-6.3-6.1-9.3-14.8-9.3-25.8 0-23.3 17.2-39.8 45.7-39.8 18 0 31.1 4.4 42.3 15.3l-16.1 15.9c-8.1-8-18.2-9.1-26.9-9.1-13.6 0-20.1 7.6-20.1 16.5 0 3.6.9 6.8 3.6 9.3 2.7 2.5 6.4 4.2 11.9 4.9l15.5 2.5c11.9 1.7 19.3 4.7 25 10.2 7 6.4 10 15.7 10 27.7.2 25.5-20.8 39.9-48.3 39.9"/></g></svg>