<?xml version="1.0" encoding="utf-8"?>
<!-- Generator: Adobe Illustrator 24.3.0, SVG Export Plug-In . SVG Version: 6.00 Build 0)  -->
<svg version="1.1" id="Ebene_1" xmlns="http://www.w3.org/2000/svg" xmlns:xlink="http://www.w3.org/1999/xlink" x="0px" y="0px"
	 viewBox="0 0 340 393" style="enable-background:new 0 0 340 393;" xml:space="preserve">
<style type="text/css">
	.st0{fill:#F2F2F2;}
	.st1{fill:#CC0F12;}
	.st2{fill:#575656;}
	.st3{fill:#FFFFFF;}
</style>
<polygon class="st0" points="170.1,2 1.7,99.2 1.7,293.7 170.1,390.9 338.6,293.7 338.6,99.2 "/>
<g>
	<path class="st1" d="M84.5,156.5c0,4.9-1.3,8.6-4,11.1c-2.6,2.6-6.4,3.9-11.4,3.9h-8.1v-29.4h9c4.6,0,8.1,1.3,10.7,3.8
		C83.3,148.4,84.5,152,84.5,156.5z M80.9,156.6c0-3.8-1-6.7-2.9-8.7c-1.9-1.9-4.8-2.9-8.6-2.9h-5v23.5h4.2c4.1,0,7.1-1,9.2-3
		C79.9,163.5,80.9,160.6,80.9,156.6z"/>
	<path class="st1" d="M90.3,143.5c0-0.8,0.2-1.3,0.6-1.7c0.4-0.4,0.8-0.5,1.4-0.5c0.5,0,1,0.2,1.4,0.5c0.4,0.4,0.6,0.9,0.6,1.7
		s-0.2,1.3-0.6,1.7c-0.4,0.4-0.9,0.6-1.4,0.6c-0.6,0-1-0.2-1.4-0.6S90.3,144.2,90.3,143.5z M93.9,171.5h-3.3v-22h3.3V171.5z"/>
	<path class="st1" d="M119.1,149.4v2.1L115,152c0.4,0.5,0.7,1.1,1,1.8c0.3,0.8,0.4,1.6,0.4,2.6c0,2.2-0.7,3.9-2.2,5.2
		c-1.5,1.3-3.5,1.9-6.1,1.9c-0.7,0-1.3-0.1-1.9-0.2c-1.4,0.8-2.1,1.7-2.1,2.8c0,0.6,0.2,1,0.7,1.3c0.5,0.3,1.3,0.4,2.6,0.4h3.9
		c2.4,0,4.2,0.5,5.5,1.5c1.3,1,1.9,2.5,1.9,4.4c0,2.4-1,4.3-2.9,5.6c-2,1.3-4.8,1.9-8.6,1.9c-2.9,0-5.1-0.5-6.7-1.6
		c-1.6-1.1-2.3-2.6-2.3-4.5c0-1.3,0.4-2.5,1.3-3.5c0.9-1,2.1-1.6,3.6-2c-0.6-0.3-1-0.6-1.4-1.2c-0.4-0.5-0.6-1.2-0.6-1.9
		c0-0.8,0.2-1.5,0.6-2.1s1.1-1.2,2-1.8c-1.1-0.5-2.1-1.3-2.8-2.4s-1.1-2.4-1.1-3.9c0-2.4,0.7-4.3,2.2-5.6c1.4-1.3,3.5-2,6.2-2
		c1.2,0,2.2,0.1,3.1,0.4H119.1z M101.5,175.2c0,1.2,0.5,2.1,1.5,2.7c1,0.6,2.4,0.9,4.3,0.9c2.8,0,4.9-0.4,6.2-1.3c1.3-0.8,2-2,2-3.4
		c0-1.2-0.4-2-1.1-2.5c-0.7-0.5-2.1-0.7-4.2-0.7h-4c-1.5,0-2.7,0.4-3.5,1.1C101.9,172.8,101.5,173.8,101.5,175.2z M103.3,156.5
		c0,1.5,0.4,2.7,1.3,3.5c0.9,0.8,2.1,1.2,3.6,1.2c3.3,0,4.9-1.6,4.9-4.7c0-3.3-1.6-5-4.9-5c-1.6,0-2.8,0.4-3.6,1.3
		C103.7,153.6,103.3,154.8,103.3,156.5z"/>
	<path class="st1" d="M123.3,143.5c0-0.8,0.2-1.3,0.6-1.7c0.4-0.4,0.8-0.5,1.4-0.5c0.5,0,1,0.2,1.4,0.5c0.4,0.4,0.6,0.9,0.6,1.7
		s-0.2,1.3-0.6,1.7c-0.4,0.4-0.9,0.6-1.4,0.6c-0.6,0-1-0.2-1.4-0.6S123.3,144.2,123.3,143.5z M126.9,171.5h-3.3v-22h3.3V171.5z"/>
	<path class="st1" d="M141.1,169.1c0.6,0,1.2,0,1.7-0.1c0.5-0.1,1-0.2,1.3-0.3v2.6c-0.4,0.2-0.9,0.3-1.6,0.4
		c-0.7,0.1-1.3,0.2-1.9,0.2c-4.3,0-6.4-2.2-6.4-6.7V152h-3.2v-1.6l3.2-1.4l1.4-4.7h1.9v5.1h6.4v2.6h-6.4v13c0,1.3,0.3,2.3,0.9,3.1
		C139.2,168.8,140,169.1,141.1,169.1z"/>
	<path class="st1" d="M162.1,171.5l-0.7-3.1h-0.2c-1.1,1.4-2.2,2.3-3.3,2.8c-1.1,0.5-2.5,0.7-4.1,0.7c-2.2,0-3.9-0.6-5.1-1.7
		c-1.2-1.1-1.9-2.7-1.9-4.8c0-4.5,3.6-6.8,10.7-7l3.7-0.1v-1.4c0-1.7-0.4-3-1.1-3.8c-0.7-0.8-1.9-1.2-3.6-1.2
		c-1.8,0-3.9,0.6-6.2,1.7l-1-2.6c1.1-0.6,2.3-1.1,3.6-1.4c1.3-0.3,2.6-0.5,3.9-0.5c2.6,0,4.6,0.6,5.8,1.8c1.3,1.2,1.9,3,1.9,5.6v15
		H162.1z M154.6,169.1c2.1,0,3.7-0.6,4.9-1.7c1.2-1.1,1.8-2.7,1.8-4.8v-2l-3.3,0.1c-2.7,0.1-4.6,0.5-5.7,1.2
		c-1.2,0.7-1.8,1.9-1.8,3.4c0,1.2,0.4,2.1,1.1,2.8C152.2,168.8,153.2,169.1,154.6,169.1z"/>
	<path class="st1" d="M174.8,171.5h-3.3v-31.3h3.3V171.5z"/>
	<path class="st1" d="M188.8,179.2c-1.3,0-2.3-0.2-3-0.5v-2.9c1,0.3,1.9,0.4,3,0.4c1.3,0,2.3-0.4,3-1.2c0.7-0.8,1-2,1-3.5v-29.4h3.4
		v29.1c0,2.5-0.6,4.5-1.9,5.9C193.1,178.5,191.2,179.2,188.8,179.2z"/>
	<path class="st1" d="M212.9,171.9c-3.3,0-5.8-1-7.7-3c-1.9-2-2.8-4.7-2.8-8.3c0-3.6,0.9-6.4,2.6-8.5s4.1-3.1,7-3.1
		c2.8,0,4.9,0.9,6.6,2.7s2.4,4.2,2.4,7.2v2.1h-15.2c0.1,2.6,0.7,4.6,2,5.9c1.2,1.3,3,2,5.2,2c2.4,0,4.7-0.5,7-1.5v3
		c-1.2,0.5-2.3,0.9-3.3,1.1S214.4,171.9,212.9,171.9z M212,151.8c-1.8,0-3.2,0.6-4.2,1.7s-1.7,2.7-1.9,4.8h11.5
		c0-2.1-0.5-3.7-1.4-4.8S213.7,151.8,212,151.8z"/>
	<path class="st1" d="M233.8,169.1c0.6,0,1.2,0,1.7-0.1c0.5-0.1,1-0.2,1.3-0.3v2.6c-0.4,0.2-0.9,0.3-1.6,0.4
		c-0.7,0.1-1.3,0.2-1.9,0.2c-4.3,0-6.4-2.2-6.4-6.7V152h-3.2v-1.6l3.2-1.4l1.4-4.7h1.9v5.1h6.4v2.6h-6.4v13c0,1.3,0.3,2.3,0.9,3.1
		C231.8,168.8,232.7,169.1,233.8,169.1z"/>
	<path class="st1" d="M255.3,171.5h-16v-2.3l12-17.2h-11.3v-2.6H255v2.6l-11.9,16.9h12.2V171.5z"/>
	<path class="st1" d="M267.6,169.1c0.6,0,1.2,0,1.7-0.1c0.5-0.1,1-0.2,1.3-0.3v2.6c-0.4,0.2-0.9,0.3-1.6,0.4
		c-0.7,0.1-1.3,0.2-1.9,0.2c-4.3,0-6.4-2.2-6.4-6.7V152h-3.2v-1.6l3.2-1.4l1.4-4.7h1.9v5.1h6.4v2.6h-6.4v13c0,1.3,0.3,2.3,0.9,3.1
		C265.7,168.8,266.5,169.1,267.6,169.1z"/>
	<path class="st1" d="M274.6,169.4c0-1.8,0.8-2.7,2.4-2.7c0.8,0,1.4,0.2,1.8,0.7c0.4,0.5,0.6,1.1,0.6,2c0,0.9-0.2,1.5-0.6,2
		c-0.4,0.5-1,0.7-1.8,0.7c-0.7,0-1.3-0.2-1.7-0.6C274.8,171,274.6,170.3,274.6,169.4z M278.1,163.4H276l-1-21.3h4.2L278.1,163.4z"/>
</g>
<g>
	<path class="st2" d="M52.2,206.9h-2v-12.5h7.1v1.7h-5v3.9h4.7v1.7h-4.7V206.9z"/>
	<path class="st2" d="M67.7,202.2c0,1.5-0.4,2.8-1.2,3.6c-0.8,0.9-1.9,1.3-3.3,1.3c-0.9,0-1.7-0.2-2.3-0.6s-1.2-1-1.6-1.7
		c-0.4-0.7-0.5-1.6-0.5-2.6c0-1.5,0.4-2.7,1.2-3.6c0.8-0.9,1.9-1.3,3.3-1.3c1.4,0,2.5,0.4,3.3,1.3S67.7,200.7,67.7,202.2z
		 M60.5,194.9c0-0.4,0.1-0.6,0.3-0.8c0.2-0.2,0.4-0.2,0.7-0.2c0.3,0,0.5,0.1,0.7,0.3s0.3,0.4,0.3,0.7c0,0.3-0.1,0.5-0.3,0.7
		s-0.4,0.3-0.7,0.3c-0.3,0-0.5-0.1-0.7-0.2C60.6,195.5,60.5,195.3,60.5,194.9z M60.8,202.2c0,2.2,0.8,3.3,2.4,3.3
		c1.6,0,2.4-1.1,2.4-3.3c0-2.2-0.8-3.2-2.4-3.2c-0.8,0-1.5,0.3-1.8,0.8C61,200.3,60.8,201.1,60.8,202.2z M63.9,194.9
		c0-0.4,0.1-0.6,0.3-0.8c0.2-0.2,0.4-0.2,0.7-0.2c0.3,0,0.5,0.1,0.7,0.3c0.2,0.2,0.3,0.4,0.3,0.7c0,0.3-0.1,0.6-0.3,0.7
		c-0.2,0.2-0.4,0.3-0.7,0.3c-0.3,0-0.5-0.1-0.7-0.2C64,195.5,63.9,195.3,63.9,194.9z"/>
	<path class="st2" d="M74.8,197.3c0.4,0,0.7,0,1,0.1l-0.2,1.9c-0.3-0.1-0.6-0.1-0.9-0.1c-0.8,0-1.5,0.3-2,0.8
		c-0.5,0.5-0.7,1.2-0.7,2v4.9h-2v-9.5h1.6l0.3,1.7h0.1c0.3-0.6,0.7-1,1.2-1.3C73.7,197.4,74.2,197.3,74.8,197.3z"/>
	<path class="st2" d="M80.7,207.1c-1.2,0-2.1-0.4-2.8-1.3s-1-2.1-1-3.6c0-1.6,0.3-2.8,1-3.6c0.7-0.9,1.6-1.3,2.8-1.3
		c1.2,0,2.2,0.5,2.8,1.4h0.1c-0.1-0.7-0.1-1.2-0.1-1.6v-3.4h2v13.3H84l-0.4-1.2h-0.1C82.9,206.6,82,207.1,80.7,207.1z M81.3,205.5
		c0.8,0,1.4-0.2,1.8-0.7c0.4-0.5,0.6-1.2,0.6-2.3v-0.3c0-1.2-0.2-2-0.6-2.5c-0.4-0.5-1-0.8-1.8-0.8c-0.7,0-1.3,0.3-1.6,0.9
		c-0.4,0.6-0.6,1.4-0.6,2.5c0,1,0.2,1.8,0.6,2.4C80,205.2,80.5,205.5,81.3,205.5z"/>
	<path class="st2" d="M92.6,207.1c-1.5,0-2.6-0.4-3.5-1.3s-1.2-2-1.2-3.5c0-1.5,0.4-2.8,1.2-3.6c0.8-0.9,1.8-1.3,3.2-1.3
		c1.2,0,2.2,0.4,3,1.1c0.7,0.8,1.1,1.8,1.1,3.1v1.1H90c0,0.9,0.3,1.6,0.7,2.1c0.5,0.5,1.1,0.7,2,0.7c0.6,0,1.1-0.1,1.6-0.2
		s1-0.3,1.6-0.5v1.6c-0.5,0.2-1,0.4-1.5,0.5C93.8,207,93.2,207.1,92.6,207.1z M92.2,198.8c-0.6,0-1.2,0.2-1.5,0.6
		c-0.4,0.4-0.6,1-0.7,1.8h4.3c0-0.8-0.2-1.4-0.6-1.8C93.4,199,92.9,198.8,92.2,198.8z"/>
	<path class="st2" d="M103.3,197.3c0.4,0,0.7,0,1,0.1l-0.2,1.9c-0.3-0.1-0.6-0.1-0.9-0.1c-0.8,0-1.5,0.3-2,0.8
		c-0.5,0.5-0.7,1.2-0.7,2v4.9h-2v-9.5h1.6l0.3,1.7h0.1c0.3-0.6,0.7-1,1.2-1.3C102.2,197.4,102.8,197.3,103.3,197.3z"/>
	<path class="st2" d="M112.8,206.9l-0.3-1.2h-0.1c-0.3,0.4-0.7,0.8-1.2,1s-1.1,0.4-1.8,0.4c-1.1,0-2-0.3-2.6-0.9
		c-0.6-0.6-0.8-1.4-0.8-2.6v-6.2h2v5.8c0,0.7,0.1,1.3,0.4,1.6s0.8,0.5,1.4,0.5c0.8,0,1.5-0.3,1.9-0.8c0.4-0.5,0.6-1.4,0.6-2.5v-4.7
		h2v9.5H112.8z"/>
	<path class="st2" d="M125.5,206.9h-2v-5.8c0-0.7-0.1-1.3-0.4-1.6c-0.3-0.4-0.8-0.5-1.4-0.5c-0.8,0-1.5,0.3-1.9,0.8
		s-0.6,1.3-0.6,2.5v4.7h-2v-9.5h1.6l0.3,1.2h0.1c0.3-0.5,0.7-0.8,1.2-1c0.5-0.2,1.1-0.4,1.7-0.4c2.3,0,3.4,1.2,3.4,3.5V206.9z"/>
	<path class="st2" d="M136.3,197.4v1.1l-1.6,0.3c0.1,0.2,0.3,0.4,0.4,0.7c0.1,0.3,0.1,0.6,0.1,0.9c0,1-0.3,1.7-1,2.3
		s-1.6,0.8-2.8,0.8c-0.3,0-0.6,0-0.8-0.1c-0.4,0.3-0.6,0.6-0.6,0.9c0,0.2,0.1,0.4,0.3,0.5c0.2,0.1,0.6,0.2,1.1,0.2h1.7
		c1,0,1.8,0.2,2.4,0.7c0.5,0.4,0.8,1.1,0.8,1.9c0,1.1-0.4,1.9-1.3,2.5c-0.9,0.6-2.2,0.9-3.8,0.9c-1.3,0-2.3-0.2-3-0.7s-1-1.1-1-2
		c0-0.6,0.2-1.1,0.6-1.5c0.4-0.4,0.9-0.7,1.5-0.8c-0.3-0.1-0.5-0.3-0.7-0.6c-0.2-0.3-0.3-0.5-0.3-0.8c0-0.4,0.1-0.7,0.3-0.9
		c0.2-0.2,0.5-0.5,0.9-0.7c-0.5-0.2-0.9-0.6-1.2-1c-0.3-0.5-0.5-1-0.5-1.7c0-1,0.3-1.8,1-2.4c0.6-0.6,1.6-0.8,2.8-0.8
		c0.3,0,0.5,0,0.8,0.1c0.3,0,0.5,0.1,0.7,0.1H136.3z M128.9,208.4c0,0.4,0.2,0.8,0.6,1c0.4,0.2,0.9,0.4,1.6,0.4
		c1.1,0,1.9-0.2,2.4-0.5s0.8-0.7,0.8-1.2c0-0.4-0.1-0.7-0.4-0.9c-0.3-0.2-0.8-0.3-1.6-0.3h-1.5c-0.6,0-1,0.1-1.4,0.4
		S128.9,207.9,128.9,208.4z M129.8,200.5c0,0.6,0.2,1,0.5,1.4s0.7,0.5,1.3,0.5c1.2,0,1.7-0.6,1.7-1.9c0-0.6-0.1-1.1-0.4-1.4
		c-0.3-0.3-0.7-0.5-1.3-0.5c-0.6,0-1,0.2-1.3,0.5C129.9,199.4,129.8,199.9,129.8,200.5z"/>
	<path class="st2" d="M145.8,207.1c-1.2,0-2.1-0.4-2.8-1.3s-1-2.1-1-3.6c0-1.6,0.3-2.8,1-3.6c0.7-0.9,1.6-1.3,2.8-1.3
		c1.2,0,2.2,0.5,2.8,1.4h0.1c-0.1-0.7-0.1-1.2-0.1-1.6v-3.4h2v13.3h-1.6l-0.4-1.2h-0.1C148,206.6,147.1,207.1,145.8,207.1z
		 M146.4,205.5c0.8,0,1.4-0.2,1.8-0.7c0.4-0.5,0.6-1.2,0.6-2.3v-0.3c0-1.2-0.2-2-0.6-2.5c-0.4-0.5-1-0.8-1.8-0.8
		c-0.7,0-1.3,0.3-1.6,0.9c-0.4,0.6-0.6,1.4-0.6,2.5c0,1,0.2,1.8,0.6,2.4C145.1,205.2,145.6,205.5,146.4,205.5z"/>
	<path class="st2" d="M157.7,207.1c-1.5,0-2.6-0.4-3.5-1.3s-1.2-2-1.2-3.5c0-1.5,0.4-2.8,1.2-3.6c0.8-0.9,1.8-1.3,3.2-1.3
		c1.2,0,2.2,0.4,3,1.1c0.7,0.8,1.1,1.8,1.1,3.1v1.1h-6.3c0,0.9,0.3,1.6,0.7,2.1c0.5,0.5,1.1,0.7,2,0.7c0.6,0,1.1-0.1,1.6-0.2
		s1-0.3,1.6-0.5v1.6c-0.5,0.2-1,0.4-1.5,0.5C158.9,207,158.3,207.1,157.7,207.1z M157.3,198.8c-0.6,0-1.2,0.2-1.5,0.6
		c-0.4,0.4-0.6,1-0.7,1.8h4.3c0-0.8-0.2-1.4-0.6-1.8C158.5,199,158,198.8,157.3,198.8z"/>
	<path class="st2" d="M170,204.2c0,0.9-0.3,1.6-1,2.1c-0.7,0.5-1.6,0.7-2.9,0.7c-1.3,0-2.3-0.2-3-0.6v-1.7c1.1,0.5,2.1,0.8,3.1,0.8
		c1.2,0,1.9-0.4,1.9-1.1c0-0.2-0.1-0.4-0.2-0.6c-0.1-0.2-0.4-0.3-0.7-0.5c-0.3-0.2-0.8-0.4-1.3-0.6c-1.1-0.4-1.8-0.8-2.2-1.3
		c-0.4-0.4-0.6-1-0.6-1.6c0-0.8,0.3-1.4,1-1.9c0.7-0.4,1.5-0.7,2.7-0.7c1.1,0,2.2,0.2,3.2,0.7l-0.7,1.5c-1-0.4-1.9-0.6-2.6-0.6
		c-1.1,0-1.6,0.3-1.6,0.9c0,0.3,0.1,0.5,0.4,0.8c0.3,0.2,0.9,0.5,1.8,0.8c0.8,0.3,1.3,0.6,1.7,0.8s0.6,0.5,0.8,0.9
		C169.9,203.4,170,203.8,170,204.2z"/>
	<path class="st2" d="M176.9,194.4h3.7c1.7,0,3,0.3,3.7,0.8s1.2,1.3,1.2,2.4c0,0.7-0.2,1.3-0.6,1.8c-0.4,0.5-0.9,0.8-1.6,0.9v0.1
		c0.9,0.2,1.5,0.5,1.9,1c0.4,0.5,0.6,1.1,0.6,2c0,1.1-0.4,2-1.2,2.6c-0.8,0.6-1.9,1-3.3,1h-4.5V194.4z M179,199.6h2
		c0.9,0,1.5-0.1,1.9-0.4s0.6-0.7,0.6-1.4c0-0.6-0.2-1-0.6-1.3c-0.4-0.3-1.1-0.4-2-0.4H179V199.6z M179,201.2v4h2.2
		c0.9,0,1.5-0.2,1.9-0.5c0.4-0.3,0.7-0.8,0.7-1.6c0-0.7-0.2-1.1-0.7-1.4c-0.4-0.3-1.1-0.5-2-0.5H179z"/>
	<path class="st2" d="M193.9,206.9l-3.6-10.4h-0.1c0.1,1.6,0.1,3,0.1,4.4v6.1h-1.9v-12.5h2.9l3.5,9.9h0.1l3.6-9.9h2.9v12.5h-2v-6.2
		c0-0.6,0-1.4,0-2.4c0-1,0.1-1.6,0.1-1.8h-0.1l-3.8,10.4H193.9z"/>
	<path class="st2" d="M216.2,206.9H214l-2.1-7.5c-0.1-0.3-0.2-0.8-0.3-1.4c-0.1-0.6-0.2-1-0.2-1.3c-0.1,0.4-0.1,0.8-0.3,1.4
		c-0.1,0.6-0.2,1-0.3,1.3l-2.1,7.4h-2.2l-1.6-6.3l-1.6-6.2h2.1l1.8,7.3c0.3,1.2,0.5,2.2,0.6,3.1c0.1-0.5,0.2-1,0.3-1.6
		c0.1-0.6,0.2-1.1,0.3-1.5l2-7.3h2l2.1,7.3c0.2,0.7,0.4,1.7,0.6,3c0.1-0.8,0.3-1.9,0.6-3.1l1.8-7.3h2.1L216.2,206.9z"/>
	<path class="st2" d="M220.9,194.9c0-0.4,0.1-0.6,0.3-0.8c0.2-0.2,0.5-0.3,0.8-0.3c0.4,0,0.6,0.1,0.8,0.3c0.2,0.2,0.3,0.5,0.3,0.8
		c0,0.3-0.1,0.6-0.3,0.8c-0.2,0.2-0.5,0.3-0.8,0.3c-0.4,0-0.6-0.1-0.8-0.3C221,195.6,220.9,195.3,220.9,194.9z M223,206.9h-2v-9.5h2
		V206.9z"/>
	<path class="st2" d="M236.8,204.2c0,0.9-0.3,1.6-1,2.1c-0.7,0.5-1.6,0.7-2.9,0.7c-1.3,0-2.3-0.2-3-0.6v-1.7
		c1.1,0.5,2.1,0.8,3.1,0.8c1.2,0,1.9-0.4,1.9-1.1c0-0.2-0.1-0.4-0.2-0.6c-0.1-0.2-0.4-0.3-0.7-0.5c-0.3-0.2-0.8-0.4-1.3-0.6
		c-1.1-0.4-1.8-0.8-2.2-1.3c-0.4-0.4-0.6-1-0.6-1.6c0-0.8,0.3-1.4,1-1.9c0.7-0.4,1.5-0.7,2.7-0.7c1.1,0,2.2,0.2,3.2,0.7l-0.6,1.5
		c-1-0.4-1.9-0.6-2.6-0.6c-1.1,0-1.6,0.3-1.6,0.9c0,0.3,0.1,0.5,0.4,0.8c0.3,0.2,0.9,0.5,1.8,0.8c0.8,0.3,1.3,0.6,1.7,0.8
		s0.6,0.5,0.8,0.9C236.7,203.4,236.8,203.8,236.8,204.2z"/>
	<path class="st2" d="M238.9,194.9c0-0.4,0.1-0.6,0.3-0.8c0.2-0.2,0.5-0.3,0.8-0.3c0.4,0,0.6,0.1,0.8,0.3c0.2,0.2,0.3,0.5,0.3,0.8
		c0,0.3-0.1,0.6-0.3,0.8c-0.2,0.2-0.5,0.3-0.8,0.3c-0.4,0-0.6-0.1-0.8-0.3C239,195.6,238.9,195.3,238.9,194.9z M241,206.9h-2v-9.5h2
		V206.9z"/>
	<path class="st2" d="M247.7,207.1c-1.4,0-2.5-0.4-3.3-1.3c-0.7-0.8-1.1-2-1.1-3.6c0-1.6,0.4-2.8,1.2-3.7s1.9-1.3,3.4-1.3
		c1,0,1.9,0.2,2.7,0.6l-0.6,1.6c-0.8-0.3-1.6-0.5-2.1-0.5c-1.6,0-2.5,1.1-2.5,3.3c0,1.1,0.2,1.9,0.6,2.4c0.4,0.5,1,0.8,1.8,0.8
		c0.9,0,1.7-0.2,2.5-0.7v1.8c-0.4,0.2-0.7,0.4-1.2,0.5C248.8,207,248.3,207.1,247.7,207.1z"/>
	<path class="st2" d="M260.9,206.9h-2v-5.8c0-0.7-0.1-1.3-0.4-1.6c-0.3-0.4-0.8-0.5-1.4-0.5c-0.8,0-1.5,0.3-1.9,0.8
		c-0.4,0.5-0.6,1.3-0.6,2.5v4.7h-2v-13.3h2v3.4c0,0.5,0,1.1-0.1,1.7h0.1c0.3-0.5,0.7-0.8,1.1-1.1s1.1-0.4,1.7-0.4
		c2.3,0,3.4,1.2,3.4,3.5V206.9z"/>
	<path class="st2" d="M267.8,207.1c-1.5,0-2.6-0.4-3.5-1.3s-1.2-2-1.2-3.5c0-1.5,0.4-2.8,1.2-3.6c0.8-0.9,1.8-1.3,3.2-1.3
		c1.2,0,2.2,0.4,3,1.1c0.7,0.8,1.1,1.8,1.1,3.1v1.1h-6.3c0,0.9,0.3,1.6,0.7,2.1c0.5,0.5,1.1,0.7,2,0.7c0.6,0,1.1-0.1,1.6-0.2
		c0.5-0.1,1-0.3,1.6-0.5v1.6c-0.5,0.2-1,0.4-1.5,0.5C269,207,268.5,207.1,267.8,207.1z M267.4,198.8c-0.6,0-1.2,0.2-1.5,0.6
		c-0.4,0.4-0.6,1-0.7,1.8h4.3c0-0.8-0.2-1.4-0.6-1.8C268.6,199,268.1,198.8,267.4,198.8z"/>
	<path class="st2" d="M278.6,197.3c0.4,0,0.7,0,1,0.1l-0.2,1.9c-0.3-0.1-0.6-0.1-0.9-0.1c-0.8,0-1.5,0.3-2,0.8
		c-0.5,0.5-0.7,1.2-0.7,2v4.9h-2v-9.5h1.6l0.3,1.7h0.1c0.3-0.6,0.7-1,1.2-1.3C277.4,197.4,278,197.3,278.6,197.3z"/>
	<path class="st2" d="M289.6,206.9h-2v-5.8c0-0.7-0.1-1.3-0.4-1.6c-0.3-0.4-0.8-0.5-1.4-0.5c-0.8,0-1.5,0.3-1.9,0.8
		s-0.6,1.3-0.6,2.5v4.7h-2v-9.5h1.6l0.3,1.2h0.1c0.3-0.5,0.7-0.8,1.2-1c0.5-0.2,1.1-0.4,1.7-0.4c2.3,0,3.4,1.2,3.4,3.5V206.9z"/>
</g>
<rect x="74.7" y="229.7" class="st1" width="192.1" height="35.6"/>
<g>
	<path class="st3" d="M112.3,253.2l-3.7-9.6h-0.1c0.1,0.8,0.1,1.7,0.1,2.7v6.9h-1.2v-10.8h1.9l3.4,8.9h0.1l3.5-8.9h1.9v10.8H117v-7
		c0-0.8,0-1.7,0.1-2.6H117l-3.7,9.6H112.3z"/>
	<path class="st3" d="M127.8,253.2h-6v-10.8h6v1.1h-4.8v3.5h4.5v1.1h-4.5v4h4.8V253.2z"/>
	<path class="st3" d="M139,253.2h-1.3v-5.1h-5.7v5.1h-1.3v-10.8h1.3v4.6h5.7v-4.6h1.3V253.2z"/>
	<path class="st3" d="M143.9,248.7v4.5h-1.3v-10.8h3c1.3,0,2.3,0.3,2.9,0.8s1,1.3,1,2.3c0,1.4-0.7,2.4-2.2,2.9l2.9,4.9h-1.5
		l-2.6-4.5H143.9z M143.9,247.6h1.7c0.9,0,1.5-0.2,2-0.5c0.4-0.4,0.6-0.9,0.6-1.6c0-0.7-0.2-1.2-0.6-1.5c-0.4-0.3-1.1-0.5-2-0.5
		h-1.6V247.6z"/>
	<path class="st3" d="M163.2,253.2h-6v-10.8h6v1.1h-4.8v3.5h4.5v1.1h-4.5v4h4.8V253.2z"/>
	<path class="st3" d="M167.4,248.7v4.5h-1.3v-10.8h3c1.3,0,2.3,0.3,2.9,0.8c0.6,0.5,1,1.3,1,2.3c0,1.4-0.7,2.4-2.2,2.9l2.9,4.9h-1.5
		l-2.6-4.5H167.4z M167.4,247.6h1.7c0.9,0,1.5-0.2,2-0.5s0.6-0.9,0.6-1.6c0-0.7-0.2-1.2-0.6-1.5c-0.4-0.3-1.1-0.5-2-0.5h-1.6V247.6z
		"/>
	<path class="st3" d="M177.4,253.2h-1.3v-10.8h6v1.1h-4.8v4h4.5v1.1h-4.5V253.2z"/>
	<path class="st3" d="M191.4,253.2l-1.3-3.4h-4.3l-1.3,3.4h-1.3l4.3-10.9h1.1l4.3,10.9H191.4z M189.6,248.6l-1.3-3.4
		c-0.2-0.4-0.3-0.9-0.5-1.6c-0.1,0.5-0.3,1-0.5,1.6l-1.3,3.4H189.6z"/>
	<path class="st3" d="M203,253.2h-1.3v-5.1H196v5.1h-1.3v-10.8h1.3v4.6h5.7v-4.6h1.3V253.2z"/>
	<path class="st3" d="M207.8,248.7v4.5h-1.3v-10.8h3c1.3,0,2.3,0.3,2.9,0.8c0.6,0.5,1,1.3,1,2.3c0,1.4-0.7,2.4-2.2,2.9l2.9,4.9h-1.5
		l-2.6-4.5H207.8z M207.8,247.6h1.7c0.9,0,1.5-0.2,2-0.5c0.4-0.4,0.6-0.9,0.6-1.6c0-0.7-0.2-1.2-0.6-1.5s-1.1-0.5-2-0.5h-1.6V247.6z
		"/>
	<path class="st3" d="M222.5,253.2h-6v-10.8h6v1.1h-4.8v3.5h4.5v1.1h-4.5v4h4.8V253.2z"/>
	<path class="st3" d="M234,253.2h-1.4l-5.9-9.1h-0.1c0.1,1.1,0.1,2,0.1,2.9v6.1h-1.2v-10.8h1.4l5.9,9h0.1c0-0.1,0-0.6-0.1-1.3
		c0-0.7,0-1.2,0-1.5v-6.2h1.2V253.2z"/>
</g>
</svg>
