<?xml version="1.0" encoding="utf-8"?>
<!-- Generator: Adobe Illustrator 24.1.2, SVG Export Plug-In . SVG Version: 6.00 Build 0)  -->
<svg version="1.1" id="Ebene_1" xmlns="http://www.w3.org/2000/svg" xmlns:xlink="http://www.w3.org/1999/xlink" x="0px" y="0px"
	 viewBox="0 0 1069.9 197.6" style="enable-background:new 0 0 1069.9 197.6;" xml:space="preserve">
<style type="text/css">
	.st0{fill:#CC1013;}
	.st1{fill:#575656;}
	.st2{fill:#9E120A;}
</style>
<g id="Ebene_zur_Sichtbarkeit">
</g>
<g id="Ebene_1_1_">
	<g>
		<g>
			<rect x="514.1" y="186.7" class="st0" width="555.9" height="10.9"/>
			<g>
				<path class="st1" d="M532.7,55.7c-8.1,0-13.5-2.1-18.6-7.2l3.9-3.9c4.5,4.5,8.7,5.9,14.8,5.9c8,0,12.9-3.7,12.9-10.1
					c0-2.9-0.8-5.2-2.7-6.8c-1.7-1.5-3.2-2.1-7.1-2.7l-6.3-0.9c-4.3-0.7-7.5-2-10-4.1c-2.8-2.4-4.2-5.8-4.2-10.3
					c0-9.3,6.7-15.3,17.4-15.3c7,0,11.5,1.8,16.2,6l-3.8,3.7c-3.3-3.1-7-4.7-12.7-4.7c-7.3,0-11.5,4.1-11.5,10.2
					c0,2.7,0.8,4.9,2.4,6.3c1.7,1.4,4.3,2.4,7.1,2.8l6.3,1c5,0.8,7.4,1.7,9.9,3.9c2.9,2.5,4.6,6.2,4.6,10.7
					C551.5,49.8,544,55.7,532.7,55.7"/>
				<path class="st1" d="M590,9.4c-2.5-2.5-5.7-3.8-9.4-3.8s-6.9,1.3-9.4,3.8c-3.4,3.5-3.8,7.5-3.8,18.7c0,11.2,0.4,15.1,3.8,18.7
					c2.5,2.5,5.7,3.8,9.4,3.8s6.9-1.3,9.4-3.8c3.4-3.5,3.8-7.5,3.8-18.7C593.8,16.8,593.4,12.9,590,9.4 M594.1,50.3
					c-3.4,3.4-7.9,5.4-13.5,5.4c-5.7,0-10.3-2-13.6-5.4c-5.1-5.1-5.4-9.9-5.4-22.3s0.3-17.2,5.4-22.3c3.4-3.4,8-5.3,13.6-5.3
					s10.2,2,13.5,5.3c5.1,5.1,5.5,9.9,5.5,22.3S599.3,45.2,594.1,50.3"/>
			</g>
			<polygon class="st1" points="613.3,55.2 613.3,0.8 619.2,0.8 619.2,50 647,50 647,55.2 			"/>
			<g>
				<path class="st1" d="M672.3,55.7c-11,0-19-7.6-19-18.4V0.8h5.8v36c0,8.3,5.2,13.7,13.2,13.7s13.2-5.4,13.2-13.7v-36h5.8v36.5
					C691.3,48.1,683.3,55.7,672.3,55.7"/>
			</g>
			<polygon class="st1" points="722.3,6 722.3,55.2 716.5,55.2 716.5,6 700.8,6 700.8,0.8 738.1,0.8 738.1,6 			"/>
			<rect x="748.3" y="0.8" class="st1" width="5.8" height="54.4"/>
			<g>
				<path class="st1" d="M796.2,9.4c-2.5-2.5-5.7-3.8-9.4-3.8s-6.9,1.3-9.4,3.8c-3.4,3.5-3.8,7.5-3.8,18.7c0,11.2,0.4,15.1,3.8,18.7
					c2.5,2.5,5.7,3.8,9.4,3.8s6.9-1.3,9.4-3.8c3.4-3.5,3.8-7.5,3.8-18.7C800,16.8,799.6,12.9,796.2,9.4 M800.3,50.3
					c-3.4,3.4-7.9,5.4-13.5,5.4c-5.7,0-10.3-2-13.6-5.4c-5.1-5.1-5.4-9.9-5.4-22.3s0.3-17.2,5.4-22.3c3.4-3.4,8-5.3,13.6-5.3
					s10.2,2,13.5,5.3c5.1,5.1,5.5,9.9,5.5,22.3S805.5,45.2,800.3,50.3"/>
			</g>
			<polygon class="st1" points="854.3,55.2 825.3,11.6 825.3,55.2 819.5,55.2 819.5,0.8 825,0.8 853.9,44.3 853.9,0.8 859.8,0.8 
				859.8,55.2 			"/>
			<g>
				<path class="st1" d="M889.5,55.7c-8.1,0-13.5-2.1-18.6-7.2l3.9-3.9c4.5,4.5,8.7,5.9,14.8,5.9c8,0,12.9-3.7,12.9-10.1
					c0-2.9-0.8-5.2-2.7-6.8c-1.7-1.5-3.2-2.1-7.1-2.7l-6.3-0.9c-4.3-0.7-7.5-2-10-4.1c-2.8-2.4-4.2-5.8-4.2-10.3
					c0-9.3,6.7-15.3,17.4-15.3c7,0,11.5,1.8,16.2,6l-3.8,3.7c-3.3-3.1-7-4.7-12.7-4.7c-7.3,0-11.5,4.1-11.5,10.2
					c0,2.7,0.8,4.9,2.5,6.3c1.7,1.4,4.3,2.4,7.1,2.8l6.3,1c5,0.8,7.4,1.7,9.9,3.9c2.9,2.5,4.6,6.2,4.6,10.7
					C908.3,49.8,900.9,55.7,889.5,55.7"/>
			</g>
			<polygon class="st1" points="945.3,6 945.3,26 969.2,26 969.2,31.2 945.3,31.2 945.3,55.2 939.5,55.2 939.5,0.8 973.3,0.8 
				973.3,6 			"/>
			<g>
				<path class="st1" d="M1008.7,9.4c-2.5-2.5-5.7-3.8-9.4-3.8s-6.9,1.3-9.4,3.8c-3.4,3.5-3.8,7.5-3.8,18.7
					c0,11.2,0.4,15.1,3.8,18.7c2.5,2.5,5.7,3.8,9.4,3.8s6.9-1.3,9.4-3.8c3.4-3.5,3.8-7.5,3.8-18.7
					C1012.6,16.8,1012.2,12.9,1008.7,9.4 M1012.9,50.3c-3.4,3.4-7.9,5.4-13.5,5.4c-5.7,0-10.3-2-13.6-5.4c-5.1-5.1-5.4-9.9-5.4-22.3
					s0.3-17.2,5.4-22.3c3.4-3.4,7.9-5.3,13.6-5.3s10.2,2,13.5,5.3c5.1,5.1,5.5,9.9,5.5,22.3S1018,45.2,1012.9,50.3"/>
				<path class="st1" d="M1052.4,6h-14.5v20h14.5c6.3,0,10.9-3.3,10.9-9.9S1058.8,6,1052.4,6 M1063.3,55.2L1051,31.1h-13.1v24.2
					h-5.8V0.8h20.9c9.5,0,16.1,5.7,16.1,15.2c0,7.9-4.8,13.2-11.8,14.6l12.9,24.7H1063.3z"/>
				<path class="st0" d="M547.9,101.5c-2.2-2.8-5.5-4.3-10.1-4.3h-10.3v45h10.3c4.5,0,7.8-1.5,10.1-4.3c2.5-3,2.8-7.4,2.8-18.2
					C550.7,108.9,550.4,104.5,547.9,101.5 M559.8,144.2c-5,6.9-11.5,10.1-20.9,10.1h-24.9V85.2H539c9.4,0,15.9,3.2,20.9,10.1
					c4.3,5.9,4.4,13,4.4,24.4C564.2,131.2,564.1,138.3,559.8,144.2"/>
				<path class="st0" d="M609.8,100.3c-1.9-2.2-5-3.7-8.6-3.7c-3.7,0-6.7,1.4-8.7,3.7c-2.5,2.9-3.3,6.2-3.3,19.4s0.8,16.4,3.3,19.3
					c2,2.2,5,3.8,8.7,3.8c3.7,0,6.7-1.5,8.6-3.8c2.5-2.9,3.4-6.1,3.4-19.3S612.3,103.3,609.8,100.3 M619.6,147.6
					c-4.7,4.6-10.5,7.3-18.4,7.3s-13.9-2.6-18.5-7.3c-6.9-6.9-7-14.6-7-27.8s0.1-21,7-27.8c4.7-4.6,10.6-7.3,18.5-7.3
					c8,0,13.8,2.6,18.4,7.3c6.9,6.9,7.1,14.6,7.1,27.8S626.5,140.7,619.6,147.6"/>
				<path class="st0" d="M662.7,154.9c-8,0-13.8-2.6-18.5-7.3c-6.9-6.9-7-14.6-7-27.8s0.1-21,7-27.8c4.8-4.6,10.6-7.3,18.5-7.3
					c12.9,0,22.8,7.4,25.3,21.8h-13.8c-1.4-5.6-4.8-9.8-11.5-9.8c-3.7,0-6.7,1.4-8.6,3.6c-2.5,2.9-3.4,6.3-3.4,19.5
					s0.9,16.6,3.4,19.5c1.9,2.2,5,3.6,8.6,3.6c6.7,0,10.3-4.2,11.6-9.8H688C685.5,147.5,675.5,154.9,662.7,154.9"/>
				<path class="st0" d="M724,154.9c-14.2,0-25.4-9.6-25.4-24.3V85.2h13.5v44.9c0,8,4.7,12.7,11.9,12.7s12-4.8,12-12.7V85.2h13.4
					v45.4C749.4,145.3,738.2,154.9,724,154.9"/>
			</g>
			<polygon class="st0" points="813.5,154.3 813.5,114 800.3,140.2 791.2,140.2 777.9,114 777.9,154.3 764.4,154.3 764.4,85.2 
				777.7,85.2 795.8,122.6 813.7,85.2 827,85.2 827,154.3 			"/>
			<polygon class="st0" points="843.1,154.3 843.1,85.2 888.6,85.2 888.6,97.2 856.6,97.2 856.6,113.4 883.8,113.4 883.8,125.5 
				856.6,125.5 856.6,142.3 888.6,142.3 888.6,154.3 			"/>
			<polygon class="st0" points="942.6,154.3 915.3,111.9 915.3,154.3 901.8,154.3 901.8,85.2 913.8,85.2 941.2,127.5 941.2,85.2 
				954.7,85.2 954.7,154.3 			"/>
			<polygon class="st0" points="997.2,97.2 997.2,154.3 983.7,154.3 983.7,97.2 965.6,97.2 965.6,85.2 1015.2,85.2 1015.2,97.2 			
				"/>
			<g>
				<path class="st0" d="M1045.2,154.9c-10.5,0-18.4-2.2-25.2-9.1l8.7-8.7c4.4,4.4,10.3,5.8,16.6,5.8c8.1,0,12.3-3.1,12.3-8.6
					c0-2.3-0.7-4.3-2.1-5.7c-1.4-1.3-2.7-1.8-6.2-2.3l-8.3-1.3c-6.1-0.9-10.3-2.7-13.4-5.7c-3.3-3.2-4.9-7.8-4.9-13.6
					c0-12.3,9.1-21,24.1-21c9.5,0,16.4,2.3,22.3,8.1l-8.5,8.4c-4.3-4.2-9.6-4.8-14.2-4.8c-7.2,0-10.6,4-10.6,8.7
					c0,1.9,0.5,3.6,1.9,4.9c1.4,1.3,3.4,2.2,6.3,2.6l8.2,1.3c6.3,0.9,10.2,2.5,13.2,5.4c3.7,3.4,5.3,8.3,5.3,14.6
					C1070.8,147.3,1059.7,154.9,1045.2,154.9"/>
			</g>
		</g>
		<g>
			<g>
				<path class="st0" d="M450.7,35.2V0.3h-87.9v34.4c14.7,17.3,23.6,39.6,23.6,64.1s-8.9,46.8-23.6,64.1v34.8h87.9v-35.2
					c-14.5-17.2-23.3-39.4-23.3-63.6S436.2,52.4,450.7,35.2z"/>
			</g>
			<path class="st0" d="M138.5,133C138.5,133,138.5,133,138.5,133c-9.6,11.1-23.7,18.2-39.5,18.2c-28.8,0-52.2-23.4-52.2-52.2
				S70.2,46.8,99,46.8c15.8,0,29.9,7.1,39.5,18.2c0,0,0,0,0-0.1c4.9-15.7,13-30,23.6-42.1C144.9,8.6,122.9,0,99,0
				C44.4,0,0,44.4,0,99s44.4,99,99,99c24,0,46-8.6,63.1-22.8C151.5,163,143.4,148.8,138.5,133z"/>
			<g>
				<g>
					<path class="st0" d="M259.3,198c-54.6,0-99-44.4-99-99s44.4-99,99-99s99,44.4,99,99S313.9,198,259.3,198z M259.3,46.8
						c-28.8,0-52.2,23.4-52.2,52.2s23.4,52.2,52.2,52.2s52.2-23.4,52.2-52.2S288.1,46.8,259.3,46.8z"/>
				</g>
			</g>
			<path class="st2" d="M99,198c24,0,46-8.6,63.1-22.8c-10.6-12.1-18.7-26.4-23.6-42.1c0,0,0,0,0-0.1c-9.6,11.1-23.7,18.2-39.5,18.2
				c-28.8,0-52.2-23.4-52.2-52.2c0-14.2,5.7-27.1,14.9-36.5L28.6,29.5C10.9,47.3,0,71.9,0,99C0,153.6,44.4,198,99,198z"/>
			<path class="st2" d="M450.7,162.4c-14.5-17.2-23.3-39.4-23.3-63.6c0-10.2,1.6-20.1,4.5-29.4L362.8,0.3v34.4
				c14.7,17.3,23.6,39.6,23.6,64.1s-8.9,46.8-23.6,64.1v34.8h87.9L450.7,162.4L450.7,162.4z"/>
			<path class="st2" d="M259.3,198c27.3,0,52-11.1,70-29l-33.1-33.1c-9.5,9.5-22.5,15.3-36.9,15.3c-28.8,0-52.2-23.4-52.2-52.2
				c0-14.4,5.9-27.4,15.3-36.9L189.3,29c-17.9,17.9-29,42.7-29,69.9C160.3,153.6,204.7,198,259.3,198z"/>
		</g>
	</g>
</g>
</svg>
